<svg width="180" height="180" viewBox="0 0 180 180" fill="none" xmlns="http://www.w3.org/2000/svg">
<path d="M170.716 41.8673H160.386C160.427 41.421 160.451 40.9706 160.451 40.5133C160.451 32.544 153.991 26.0827 146.021 26.0827C139.527 26.0827 134.037 30.3728 132.225 36.2725C130.934 35.4829 129.417 35.027 127.794 35.027C123.665 35.027 120.225 37.9672 119.448 41.8673H101.932C101.156 37.9672 97.7157 35.027 93.5875 35.027C89.4594 35.027 86.0193 37.9672 85.2434 41.8673H59.6094C59.0752 35.6175 53.8732 30.7038 47.5038 30.6269C44.9152 23.7206 38.2547 18.8042 30.4434 18.8042C20.7589 18.8042 12.8418 26.3614 12.2637 35.9017C7.07948 36.0789 2.93213 40.3361 2.93213 45.5629C2.93213 50.9036 7.26076 55.2336 12.6015 55.2336C15.5253 55.2336 170.716 55.1718 170.716 55.1718C174.39 55.1718 177.368 52.1932 177.368 48.5196C177.368 44.8446 174.39 41.8673 170.716 41.8673Z" fill="#DDE9ED"/>
<path d="M177.368 48.5196C177.368 52.1945 174.388 55.1705 170.717 55.1705C170.717 55.1705 169.914 55.1705 168.418 55.1705V55.1471C168.418 53.3069 167.674 51.6466 166.471 50.4436C165.267 49.2392 163.604 48.4949 161.768 48.4949H151.435C151.476 48.0499 151.501 47.5967 151.501 47.1408C151.501 39.1702 145.039 32.7116 137.073 32.7116C135.882 32.7116 134.727 32.8558 133.622 33.1291C136.139 28.9075 140.751 26.0813 146.023 26.0813C153.989 26.0813 160.451 32.544 160.451 40.5146C160.451 40.9706 160.427 41.4196 160.385 41.866H170.717C172.553 41.866 174.216 42.6089 175.421 43.8133C176.624 45.0177 177.368 46.6807 177.368 48.5196Z" fill="#C4E1E8"/>
<path d="M168.035 83.827C167.458 74.2881 159.541 66.7295 149.856 66.7295C142.046 66.7295 135.384 71.6459 132.795 78.5536C126.427 78.6305 121.225 83.5441 120.69 89.7926H110.556C110.939 86.3429 109.172 82.8657 105.881 81.2315C101.911 79.2595 97.143 80.6781 94.8605 84.3777C93.512 83.4782 91.8915 82.9536 90.1501 82.9536C86.022 82.9536 82.5819 85.8939 81.806 89.794H78.0583C74.3847 89.794 71.406 92.7713 71.406 96.4463C71.406 100.12 74.3847 103.097 78.0583 103.097C78.0583 103.097 164.775 103.159 167.699 103.159C173.04 103.159 177.368 98.8303 177.368 93.4896C177.368 88.2614 173.219 84.0056 168.035 83.827Z" fill="#A0ECFF"/>
<path d="M177.368 93.4882C177.368 98.8289 173.037 103.16 167.699 103.16C167.295 103.16 165.294 103.16 162.146 103.158C162.157 103.009 162.16 102.865 162.16 102.718C162.16 97.4886 158.011 93.2355 152.827 93.0556C152.249 83.5167 144.331 75.9594 134.648 75.9594C134.433 75.9594 134.219 75.9635 134.005 75.9704C137.132 70.4525 143.06 66.7295 149.855 66.7295C159.543 66.7295 167.46 74.2895 168.035 83.8284C173.219 84.0042 177.368 88.2614 177.368 93.4882Z" fill="#60DAFF"/>
<path d="M51.198 89.7926H44.3288C44.7174 88.639 44.9303 87.4031 44.9303 86.1177C44.9303 79.7538 39.7722 74.5957 33.4083 74.5957C28.4974 74.5957 24.3075 77.6705 22.6485 81.9978C19.5367 80.6423 15.7807 81.2315 13.2346 83.7762C11.5743 85.4379 10.7434 87.6159 10.7434 89.794H9.583C5.90944 89.794 2.93213 92.7713 2.93213 96.4462C2.93213 100.12 5.90944 103.097 9.583 103.097C9.583 103.097 33.7791 103.107 51.1953 103.118C54.8757 103.12 57.8599 100.136 57.8599 96.4545C57.8599 92.7754 54.8771 89.7926 51.198 89.7926Z" fill="#F0F5F7"/>
<path d="M57.8599 96.4572C57.8599 100.135 54.8771 103.118 51.1953 103.118C50.4784 103.118 49.7492 103.118 49.0117 103.115C49.0955 102.7 49.1381 102.273 49.1381 101.834C49.1381 99.9948 48.391 98.3304 47.1866 97.1233C45.9795 95.9162 44.3123 95.1718 42.4735 95.1718H35.6042C35.9942 94.0169 36.2085 92.7823 36.2085 91.4969C36.2085 85.1344 31.049 79.9749 24.6852 79.9749C24.3308 79.9749 23.9793 79.9928 23.6318 80.0244C25.6643 76.7628 29.2829 74.5944 33.407 74.5944C39.7736 74.5944 44.9303 79.7538 44.9303 86.1163C44.9303 87.4045 44.716 88.6363 44.3302 89.7913H51.198C53.0368 89.7913 54.7013 90.5397 55.9084 91.7427C57.1155 92.9512 57.8599 94.617 57.8599 96.4572Z" fill="#DDE9ED"/>
<path d="M170.416 139.922H162.498C161.653 136.111 158.257 133.262 154.192 133.262C153.451 133.262 152.73 133.356 152.044 133.535C150.001 128.047 144.717 124.139 138.518 124.139C131.714 124.139 126.015 128.848 124.491 135.183C123.627 134.644 122.608 134.327 121.515 134.327C118.414 134.327 115.899 136.828 115.872 139.922H94.0241C92.6549 137.055 89.7298 135.074 86.3405 135.074C84.1803 135.074 82.2082 135.88 80.7072 137.208C80.0329 131.435 75.1289 126.954 69.1743 126.954C63.8651 126.954 59.3909 130.518 58.0066 135.383C55.9906 131.447 51.9188 128.739 47.2043 128.683C44.6156 121.775 37.9551 116.859 30.1438 116.859C20.4593 116.859 12.5423 124.418 11.9641 133.956C6.7813 134.135 2.63257 138.391 2.63257 143.618C2.63257 148.958 6.9612 153.288 12.3019 153.288C15.2257 153.288 170.416 153.227 170.416 153.227C174.091 153.227 177.069 150.248 177.069 146.574C177.069 142.901 174.091 139.922 170.416 139.922Z" fill="#A0ECFF"/>
<path d="M177.07 146.573C177.07 150.248 174.09 153.228 170.415 153.228C170.415 153.228 168.428 153.228 164.897 153.231C164.901 153.196 164.901 153.161 164.901 153.126C164.901 151.288 164.157 149.627 162.953 148.423C161.75 147.218 160.085 146.475 158.25 146.475H150.332C149.486 142.663 146.088 139.814 142.025 139.814C141.283 139.814 140.564 139.908 139.876 140.087C137.845 134.623 132.6 130.727 126.434 130.691C129.006 126.747 133.457 124.139 138.517 124.139C144.717 124.139 150.002 128.049 152.044 133.535C152.73 133.355 153.449 133.26 154.192 133.26C158.257 133.26 161.655 136.111 162.497 139.922H170.415C172.251 139.922 173.914 140.666 175.121 141.871C176.326 143.074 177.07 144.738 177.07 146.573Z" fill="#60DAFF"/>
<path d="M12.6015 57.8649C5.81737 57.8649 0.298096 52.347 0.298096 45.5629C0.298096 39.6852 4.35756 34.7908 9.8837 33.5603C11.5399 23.6506 20.1807 16.1716 30.4433 16.1716C38.5114 16.1716 45.8833 20.9068 49.2973 28.1179C55.3961 28.9021 60.3427 33.3227 61.83 39.2348H83.3084C85.0126 35.1684 89.0419 32.3958 93.5875 32.3958C98.1331 32.3958 102.161 35.1684 103.865 39.2348H117.514C119.219 35.1684 123.248 32.3958 127.794 32.3958C128.811 32.3958 129.819 32.5345 130.789 32.805C133.649 27.1113 139.461 23.4515 146.02 23.4515C154.999 23.4515 162.38 30.421 163.035 39.2348H170.716C175.836 39.2348 179.999 43.4 179.999 48.5196C179.999 53.6393 175.836 57.8045 170.716 57.8045L40.9793 57.8553C40.9793 57.8553 40.9793 57.8553 40.9779 57.8553C39.5249 57.8553 38.3466 56.6784 38.3466 55.2241C38.3453 53.7697 39.5236 52.5914 40.9779 52.5901L170.715 52.5393C172.932 52.5393 174.736 50.7361 174.736 48.5196C174.736 46.3031 172.932 44.5 170.716 44.5H160.385C159.644 44.5 158.937 44.1869 158.439 43.6403C157.94 43.091 157.694 42.359 157.764 41.6216C157.8 41.2398 157.818 40.8676 157.818 40.5133C157.818 34.0094 152.525 28.7167 146.02 28.7167C140.803 28.7167 136.271 32.0634 134.741 37.0457C134.502 37.823 133.917 38.4465 133.156 38.7349C132.397 39.0219 131.545 38.9423 130.852 38.5179C129.933 37.9576 128.876 37.661 127.792 37.661C124.998 37.661 122.574 39.6468 122.03 42.381C121.784 43.6128 120.703 44.5 119.448 44.5H101.932C100.676 44.5 99.5957 43.6128 99.3498 42.381C98.806 39.6454 96.3821 37.661 93.5875 37.661C90.7928 37.661 88.369 39.6454 87.8251 42.381C87.5793 43.6128 86.4985 44.5 85.2433 44.5H59.6094C58.243 44.5 57.1031 43.4535 56.9864 42.0912C56.562 37.1171 52.471 33.32 47.4722 33.2596C46.3859 33.2472 45.4205 32.5688 45.0387 31.5512C42.7714 25.5018 36.9061 21.4368 30.4433 21.4368C22.2187 21.4368 15.3879 27.8611 14.8921 36.0611C14.8097 37.4165 13.7111 38.4863 12.3543 38.533C8.54611 38.6635 5.56331 41.752 5.56331 45.5643C5.56331 49.4439 8.72052 52.6024 12.6015 52.6024C13.1741 52.6024 19.5805 52.5997 29.515 52.5956H29.5163C30.9693 52.5956 32.1476 53.7725 32.1476 55.2268C32.149 56.6811 30.9707 57.8594 29.5163 57.8608C19.5819 57.8635 13.1741 57.8649 12.6015 57.8649Z" fill="#2D3638"/>
<path d="M167.699 105.792C167.042 105.792 150.132 105.781 150.132 105.781C148.677 105.779 147.5 104.601 147.502 103.147C147.503 101.694 148.681 100.515 150.134 100.515H150.136C150.136 100.515 167.044 100.528 167.699 100.528C171.578 100.528 174.736 97.3691 174.736 93.4896C174.736 89.6773 171.754 86.5888 167.946 86.4583C166.589 86.4116 165.491 85.3418 165.408 83.9864C164.912 75.7864 158.08 69.3621 149.856 69.3621C143.394 69.3621 137.528 73.4271 135.26 79.4765C134.88 80.4941 133.913 81.1725 132.827 81.1848C127.828 81.2453 123.738 85.0424 123.313 90.0165C123.196 91.3788 122.057 92.4253 120.69 92.4253H110.555C109.806 92.4253 109.093 92.1067 108.594 91.5477C108.094 90.9902 107.856 90.2459 107.938 89.5015C108.21 87.0584 106.913 84.6826 104.71 83.5895C101.973 82.2286 98.7031 83.1638 97.1004 85.7593C96.7255 86.3663 96.1199 86.7961 95.4223 86.9486C94.7246 87.101 93.9954 86.9637 93.4008 86.5682C92.4367 85.9255 91.312 85.5863 90.1488 85.5863C87.3541 85.5863 84.9303 87.5707 84.3864 90.3063C84.142 91.5381 83.0612 92.4253 81.8046 92.4253H78.0583C75.8418 92.4253 74.0387 94.2284 74.0387 96.4449C74.0387 98.6614 75.8418 100.465 78.0583 100.465L138.671 100.507C140.126 100.508 141.304 101.688 141.303 103.141C141.301 104.595 140.123 105.772 138.67 105.772H138.669L78.0569 105.73C72.9386 105.73 68.7734 101.565 68.7734 96.4449C68.7734 91.3253 72.9386 87.1601 78.0583 87.1601H79.871C81.5753 83.0937 85.6032 80.321 90.1488 80.321C91.5221 80.321 92.8665 80.571 94.1286 81.0544C97.4369 77.6472 102.616 76.6722 107.051 78.8736C110.336 80.5051 112.56 83.6417 113.108 87.1601H118.469C119.956 81.248 124.903 76.8288 131.002 76.0432C134.416 68.8334 141.787 64.0969 149.856 64.0969C160.118 64.0969 168.759 71.5759 170.415 81.487C175.941 82.7174 179.999 87.6105 179.999 93.4882C180.001 100.272 174.482 105.792 167.699 105.792Z" fill="#2D3638"/>
<path d="M158.226 85.6919C156.844 85.6919 155.685 84.6153 155.6 83.2186C155.439 80.5654 153.224 78.4876 150.559 78.4876C149.104 78.4876 147.926 77.3093 147.926 75.855C147.926 74.4007 149.104 73.2224 150.559 73.2224C156.004 73.2224 160.527 77.4741 160.856 82.9C160.944 84.3516 159.838 85.5986 158.386 85.6864C158.333 85.6906 158.278 85.6919 158.226 85.6919Z" fill="#2D3638"/>
<path d="M51.1993 105.75C51.1966 105.75 51.1952 105.75 51.1925 105.75C33.7763 105.739 9.58158 105.73 9.58158 105.73C4.4633 105.73 0.298096 101.565 0.298096 96.4463C0.298096 91.7262 3.83845 87.8165 8.40329 87.2356C8.87021 85.2374 9.88645 83.4027 11.3737 81.9154C14.0214 79.2677 17.7142 78.1677 21.2738 78.8365C23.8034 74.6466 28.4191 71.9631 33.4083 71.9631C41.2127 71.9631 47.5628 78.3133 47.5628 86.1177C47.5628 86.4665 47.5505 86.814 47.5244 87.1614H51.1979C56.3231 87.1614 60.4924 91.3307 60.4924 96.4559C60.4924 98.9388 59.5242 101.273 57.7692 103.03C56.0141 104.784 53.6809 105.75 51.1993 105.75ZM9.58295 92.4252C7.36783 92.4252 5.56331 94.2298 5.56331 96.4463C5.56331 98.6614 7.36783 100.466 9.58295 100.466C9.58432 100.466 33.7804 100.474 51.1966 100.485H51.1993C52.2746 100.485 53.2867 100.068 54.0462 99.3068C54.8083 98.5447 55.2272 97.5325 55.2272 96.4559C55.2272 94.2339 53.4199 92.4252 51.1979 92.4252H44.3287C43.4814 92.4252 42.6849 92.0174 42.1905 91.3294C41.6975 90.6413 41.5643 89.7583 41.8334 88.9536C42.1424 88.0376 42.299 87.0831 42.299 86.1177C42.299 81.2164 38.3109 77.2284 33.4083 77.2284C29.7512 77.2284 26.4154 79.5231 25.1067 82.9399C24.8499 83.6101 24.3294 84.147 23.6661 84.4244C23.0042 84.7032 22.2571 84.6977 21.5979 84.4107C19.3649 83.4398 16.8134 83.9218 15.0967 85.6384C13.9857 86.748 13.3746 88.223 13.3746 89.7926C13.3746 91.247 12.1963 92.4252 10.7434 92.4252H9.58295Z" fill="#2D3638"/>
<path d="M12.302 155.921C5.51928 155.921 0 150.402 0 143.618C0 137.74 4.05809 132.845 9.58424 131.616C11.2404 121.705 19.8826 114.226 30.1452 114.226C38.2133 114.226 45.5866 118.963 49.0006 126.175C52.258 126.6 55.2491 128.08 57.5466 130.352C60.1682 126.66 64.479 124.321 69.1757 124.321C75.085 124.321 80.228 127.936 82.3648 133.175C83.6241 132.693 84.97 132.44 86.3419 132.44C90.0292 132.44 93.4762 134.3 95.5334 137.289H113.69C114.81 134.042 117.904 131.695 121.515 131.695C121.964 131.695 122.41 131.732 122.85 131.805C125.501 125.621 131.591 121.506 138.519 121.506C144.883 121.506 150.712 125.101 153.629 130.643C153.817 130.633 154.006 130.628 154.194 130.628C158.639 130.628 162.638 133.329 164.39 137.289H170.418C175.537 137.289 179.703 141.455 179.703 146.574C179.703 151.694 175.537 155.858 170.418 155.858L93.9788 155.888H93.9774C92.5245 155.888 91.3462 154.711 91.3448 153.257C91.3448 151.804 92.5231 150.624 93.976 150.624L170.416 150.594C172.634 150.594 174.437 148.791 174.437 146.574C174.437 144.358 172.634 142.555 170.418 142.555H162.499C161.265 142.555 160.195 141.696 159.929 140.492C159.338 137.826 156.925 135.893 154.194 135.893C153.69 135.893 153.19 135.956 152.708 136.081C151.402 136.423 150.049 135.718 149.578 134.452C147.868 129.857 143.423 126.77 138.519 126.77C133.045 126.77 128.33 130.482 127.052 135.798C126.854 136.621 126.273 137.298 125.49 137.619C124.709 137.939 123.819 137.865 123.101 137.417C122.62 137.118 122.071 136.96 121.515 136.96C119.87 136.96 118.52 138.299 118.506 139.945C118.492 141.39 117.318 142.555 115.873 142.555H94.0241C93.0092 142.555 92.085 141.971 91.6483 141.055C90.676 139.02 88.5941 137.706 86.3405 137.706C84.9068 137.706 83.5253 138.229 82.4513 139.179C81.7166 139.829 80.6839 140.015 79.7679 139.667C78.8519 139.316 78.2065 138.487 78.0925 137.513C77.5652 132.994 73.7309 129.585 69.1757 129.585C65.1835 129.585 61.6308 132.266 60.539 136.103C60.2424 137.143 59.3401 137.896 58.2648 138.002C57.1841 138.107 56.1568 137.545 55.6638 136.582C54.0214 133.376 50.768 131.357 47.1741 131.313C46.0878 131.301 45.121 130.622 44.7406 129.605C42.4733 123.555 36.608 119.49 30.1452 119.49C21.9206 119.49 15.0898 125.914 14.5926 134.114C14.5103 135.47 13.413 136.54 12.0548 136.586C8.24664 136.718 5.26522 139.807 5.26522 143.618C5.26522 147.499 8.42243 150.656 12.302 150.656C13.641 150.656 46.8665 150.643 82.5131 150.628H82.5145C83.9675 150.628 85.1458 151.807 85.1458 153.26C85.1471 154.714 83.9688 155.892 82.5145 155.894C46.8665 155.907 13.6396 155.921 12.302 155.921Z" fill="#2D3638"/>
<path d="M97.5204 66.1691H68.7403C67.286 66.1691 66.1077 64.9908 66.1077 63.5365C66.1077 62.0822 67.286 60.9053 68.7403 60.9053H97.5204C98.9748 60.9053 100.153 62.0822 100.153 63.5365C100.153 64.9908 98.9748 66.1691 97.5204 66.1691Z" fill="#2D3638"/>
<path d="M110.506 66.1691H105.593C104.138 66.1691 102.96 64.9908 102.96 63.5365C102.96 62.0822 104.138 60.9053 105.593 60.9053H110.506C111.961 60.9053 113.139 62.0822 113.139 63.5365C113.139 64.9908 111.961 66.1691 110.506 66.1691Z" fill="#2D3638"/>
<path d="M69.7937 164.442H39.9602C38.5059 164.442 37.3276 163.264 37.3276 161.81C37.3276 160.355 38.5059 159.177 39.9602 159.177H69.7937C71.2467 159.177 72.425 160.355 72.425 161.81C72.425 163.264 71.2467 164.442 69.7937 164.442Z" fill="#2D3638"/>
<path d="M31.8865 164.442H28.0262C26.5718 164.442 25.3936 163.264 25.3936 161.81C25.3936 160.355 26.5718 159.177 28.0262 159.177H31.8865C33.3408 159.177 34.5191 160.355 34.5191 161.81C34.5191 163.264 33.3408 164.442 31.8865 164.442Z" fill="#2D3638"/>
</svg>
