<svg width="180" height="180" viewBox="0 0 180 180" fill="none" xmlns="http://www.w3.org/2000/svg">
<path d="M89.9989 140.914C118.118 140.914 140.914 118.118 140.914 89.9989C140.914 61.8795 118.118 39.0842 89.9989 39.0842C61.8795 39.0842 39.0843 61.8795 39.0843 89.9989C39.0843 118.118 61.8795 140.914 89.9989 140.914Z" fill="#FFD347"/>
<path d="M90 39.0867C88.1571 39.0867 86.3374 39.1872 84.5452 39.3778C110.098 42.0999 130.003 63.7242 130.003 89.9996C130.003 116.275 110.098 137.9 84.5452 140.622C86.3374 140.813 88.1568 140.913 90 140.913C118.119 140.913 140.913 118.118 140.913 89.9996C140.913 61.8809 118.119 39.0867 90 39.0867Z" fill="#FFBE31"/>
<path d="M90 143.633C60.4266 143.633 36.3667 119.573 36.3667 90C36.3667 77.8486 40.5436 65.945 48.1279 56.482C49.0672 55.3096 50.7793 55.1208 51.9511 56.0605C53.1232 57.0002 53.3123 58.712 52.3726 59.8841C45.4602 68.509 41.8064 78.9223 41.8064 90C41.8064 116.574 63.4261 138.194 90 138.194C116.574 138.194 138.194 116.574 138.194 90C138.194 63.4257 116.574 41.8064 90 41.8064C79.0699 41.8064 68.7656 45.3734 60.2009 52.1209C59.0207 53.0497 57.3103 52.8472 56.3808 51.6677C55.4513 50.4875 55.6541 48.7772 56.8336 47.8477C66.3676 40.3365 77.8363 36.3663 89.9996 36.3663C119.573 36.3663 143.633 60.4262 143.633 89.9996C143.633 119.573 119.573 143.633 90 143.633Z" fill="#2D3638"/>
<path d="M90 19.9856C88.4978 19.9856 87.28 18.7682 87.28 17.2656V2.72004C87.28 1.21746 88.4978 0 90 0C91.5022 0 92.72 1.21746 92.72 2.72004V17.2659C92.72 18.7682 91.5022 19.9856 90 19.9856Z" fill="#2D3638"/>
<path d="M53.6354 29.7309C52.6954 29.7309 51.7813 29.2433 51.2775 28.3707L44.0047 15.7739C43.2538 14.4731 43.6992 12.8095 45.0004 12.0582C46.3015 11.308 47.9647 11.7523 48.716 13.0538L55.9888 25.6506C56.7397 26.9514 56.2943 28.615 54.9932 29.3663C54.5646 29.6131 54.097 29.7309 53.6354 29.7309Z" fill="#2D3638"/>
<path d="M27.0081 56.3534C26.5468 56.3534 26.0789 56.236 25.6507 55.9885L13.0535 48.7157C11.7527 47.9648 11.307 46.3012 12.0579 45.0001C12.8088 43.6989 14.4724 43.2538 15.7736 44.0044L28.3707 51.2772C29.6715 52.0281 30.1173 53.6917 29.3664 54.9929C28.8622 55.8658 27.9482 56.3534 27.0081 56.3534Z" fill="#2D3638"/>
<path d="M17.2659 92.7201H2.72004C1.21781 92.7201 0 91.5026 0 90.0001C0 88.4975 1.21781 87.28 2.72004 87.28H17.2663C18.7685 87.28 19.9863 88.4975 19.9863 90.0001C19.9863 91.5026 18.7682 92.7201 17.2659 92.7201Z" fill="#2D3638"/>
<path d="M14.4158 136.36C13.4757 136.36 12.5617 135.873 12.0579 135C11.307 133.699 11.7524 132.036 13.0535 131.284L25.6507 124.012C26.9515 123.261 28.6151 123.706 29.3664 125.007C30.1173 126.308 29.6719 127.972 28.3707 128.723L15.7736 135.996C15.345 136.243 14.8771 136.36 14.4158 136.36Z" fill="#2D3638"/>
<path d="M46.3577 168.307C45.8965 168.307 45.4286 168.19 45.0004 167.942C43.6996 167.191 43.2538 165.528 44.0047 164.226L51.2775 151.629C52.0284 150.328 53.692 149.883 54.9932 150.634C56.2939 151.385 56.7397 153.048 55.9888 154.349L48.716 166.946C48.2119 167.819 47.2978 168.307 46.3577 168.307Z" fill="#2D3638"/>
<path d="M90 180C88.4978 180 87.28 178.783 87.28 177.28V162.734C87.28 161.231 88.4978 160.014 90 160.014C91.5022 160.014 92.72 161.231 92.72 162.734V177.28C92.72 178.783 91.5022 180 90 180Z" fill="#2D3638"/>
<path d="M133.642 168.307C132.702 168.307 131.788 167.819 131.284 166.947L124.012 154.35C123.261 153.049 123.706 151.385 125.007 150.634C126.308 149.884 127.972 150.328 128.723 151.63L135.996 164.227C136.747 165.528 136.301 167.191 135 167.942C134.571 168.19 134.104 168.307 133.642 168.307Z" fill="#2D3638"/>
<path d="M165.584 136.36C165.123 136.36 164.655 136.243 164.227 135.995L151.63 128.722C150.329 127.971 149.883 126.308 150.634 125.007C151.385 123.706 153.049 123.261 154.35 124.011L166.947 131.284C168.248 132.035 168.693 133.698 167.942 135C167.438 135.872 166.524 136.36 165.584 136.36Z" fill="#2D3638"/>
<path d="M177.28 92.7201H162.734C161.231 92.7201 160.014 91.5026 160.014 90.0001C160.014 88.4975 161.231 87.28 162.734 87.28H177.28C178.782 87.28 180 88.4975 180 90.0001C180 91.5026 178.782 92.7201 177.28 92.7201Z" fill="#2D3638"/>
<path d="M152.992 56.3534C152.052 56.3534 151.138 55.8657 150.634 54.9932C149.883 53.6924 150.328 52.0288 151.63 51.2775L164.227 44.0047C165.528 43.2545 167.191 43.6989 167.942 45.0003C168.693 46.3011 168.248 47.9647 166.947 48.716L154.35 55.9888C153.921 56.2359 153.453 56.3534 152.992 56.3534Z" fill="#2D3638"/>
<path d="M126.365 29.7309C125.903 29.7309 125.435 29.6135 125.007 29.366C123.706 28.6151 123.261 26.9515 124.012 25.6504L131.284 13.0535C132.035 11.7524 133.699 11.3073 135 12.0579C136.301 12.8088 136.747 14.4724 135.996 15.7736L128.723 28.3704C128.219 29.243 127.304 29.7309 126.365 29.7309Z" fill="#2D3638"/>
</svg>
