<svg width="180" height="180" viewBox="0 0 180 180" fill="none" xmlns="http://www.w3.org/2000/svg">
<g clip-path="url(#clip0)">
<path d="M24.0134 59.1366C24.9719 43.3122 38.1061 30.774 54.1708 30.774C67.1278 30.774 78.1787 38.93 82.473 50.3874C93.631 50.522 102.636 59.6035 102.636 70.7931C102.636 82.0665 93.4964 91.2057 82.223 91.2057C77.503 91.2057 29.4228 91.2057 24.5737 91.2057C15.7132 91.2057 8.53226 84.0234 8.53226 75.1643C8.53226 66.492 15.4138 59.4319 24.0134 59.1366Z" fill="#F0F5F7"/>
<path d="M102.636 70.7945C102.636 78.9505 97.8483 85.9914 90.9324 89.2584C92.178 86.6176 92.877 83.665 92.877 80.549C92.877 69.3594 83.8737 60.2779 72.7157 60.1447C68.4201 48.6845 57.372 40.5286 44.4136 40.5286C38.5702 40.5286 33.1155 42.1875 28.4916 45.0604C33.8241 36.4828 43.3301 30.7727 54.1722 30.7727C67.1278 30.7727 78.1787 38.9287 82.4716 50.386C93.6296 50.522 102.636 59.6036 102.636 70.7945Z" fill="#DDE9ED"/>
<path d="M159.942 97.3196C158.864 79.5121 144.084 65.403 126.006 65.403C111.425 65.403 98.9909 74.5807 94.1583 87.4745C81.6023 87.6255 71.4702 97.8456 71.4702 110.437C71.4702 123.124 81.7534 133.407 94.4399 133.407H159.311C169.281 133.407 177.363 125.325 177.363 115.355C177.363 105.596 169.619 97.6519 159.942 97.3196Z" fill="#C4E1E8"/>
<path d="M177.365 115.355C177.365 125.324 169.282 133.408 159.311 133.408H157.912C159.222 130.909 159.962 128.063 159.962 125.048C159.962 115.29 152.218 107.345 142.541 107.011C141.463 89.2048 126.682 75.0943 108.603 75.0943C106.165 75.0943 103.789 75.3511 101.499 75.8386C107.682 69.4075 116.375 65.403 126.005 65.403C144.084 65.403 158.865 79.5108 159.943 97.321C169.621 97.6506 177.365 105.596 177.365 115.355Z" fill="#A4D5DD"/>
<path d="M148.921 78.2433C148.921 100.595 130.802 118.714 108.45 118.714C86.0985 118.714 67.9779 100.595 67.9779 78.2433C67.9779 55.8916 86.0985 37.771 108.45 37.771C130.802 37.771 148.921 55.8916 148.921 78.2433Z" fill="#F6CB43"/>
<path d="M108.452 118.714C86.0985 118.714 67.9793 100.595 67.9793 78.2432C67.9793 58.6381 81.9182 42.2877 100.427 38.5688C99.9042 41.163 99.6309 43.8437 99.6309 46.5916C99.6309 68.9447 117.749 87.0639 140.102 87.0639C142.85 87.0639 145.532 86.7892 148.126 86.266C144.403 104.775 128.051 118.714 108.452 118.714Z" fill="#FAB03C"/>
<path d="M91.1096 97.3196C90.0316 79.5121 75.2509 65.403 57.1729 65.403C42.5926 65.403 30.1575 74.5807 25.3249 87.4745C12.7689 87.6255 2.63672 97.8456 2.63672 110.437C2.63672 123.124 12.9213 133.407 25.6064 133.407H90.4793C100.448 133.407 108.531 125.325 108.531 115.355C108.531 105.596 100.787 97.6519 91.1096 97.3196Z" fill="#C4E1E8"/>
<path d="M108.531 115.355C108.531 125.324 100.448 133.408 90.4779 133.408H89.0799C90.3886 130.909 91.1288 128.063 91.1288 125.048C91.1288 115.29 83.3862 107.345 73.7086 107.011C72.6306 89.2048 57.8499 75.0943 39.7705 75.0943C37.3329 75.0943 34.9557 75.3511 32.6651 75.8386C38.849 69.4075 47.5433 65.403 57.1728 65.403C75.2508 65.403 90.0329 79.5108 91.111 97.321C100.789 97.6506 108.531 105.596 108.531 115.355Z" fill="#A4D5DD"/>
<path d="M145.48 129.287C144.402 111.481 129.621 97.3718 111.543 97.3718C96.9626 97.3718 84.5274 106.55 79.6948 119.442C67.1402 119.594 57.0067 129.814 57.0067 142.406C57.0067 155.091 67.2913 165.376 79.9777 165.376H144.849C154.819 165.376 162.901 157.294 162.901 147.324C162.901 137.565 155.157 129.621 145.48 129.287Z" fill="#F0F5F7"/>
<path d="M162.901 147.323C162.901 157.293 154.818 165.376 144.848 165.376H143.45C144.759 162.878 145.5 160.032 145.5 157.017C145.5 147.259 137.756 139.314 128.079 138.98C127.001 121.174 112.22 107.063 94.1405 107.063C91.7029 107.063 89.3257 107.319 87.0351 107.807C93.2204 101.375 101.913 97.3718 111.543 97.3718C129.621 97.3718 144.403 111.48 145.481 129.29C155.159 129.619 162.901 137.565 162.901 147.323Z" fill="#DDE9ED"/>
<path d="M29.5546 139.576C30.325 126.845 40.8911 116.759 53.8165 116.759C64.2398 116.759 73.1291 123.32 76.5843 132.538C85.5602 132.646 92.8056 139.952 92.8056 148.954C92.8056 158.023 85.453 165.376 76.3824 165.376C72.5867 165.376 33.9066 165.376 30.005 165.376C22.8777 165.376 17.0988 159.598 17.0988 152.47C17.0988 145.493 22.636 139.813 29.5546 139.576Z" fill="#F0F5F7"/>
<path d="M92.8056 148.955C92.8056 157.946 85.5753 165.251 76.609 165.372C79.2979 162.447 80.9363 158.549 80.9363 154.267C80.9363 145.267 73.6935 137.959 64.715 137.85C61.2611 128.633 52.3718 122.07 41.9472 122.07C40.7153 122.07 39.5055 122.164 38.3217 122.341C42.5267 118.854 47.9265 116.759 53.8152 116.759C64.2412 116.759 73.1291 123.319 76.5843 132.538C85.5629 132.648 92.8056 139.951 92.8056 148.955Z" fill="#DDE9ED"/>
<path d="M180 115.355C180 104.94 172.425 96.3624 162.367 94.893C161.334 86.4789 157.426 78.7143 151.219 72.8242C148.545 51.6028 130.384 35.1342 108.45 35.1342C98.8989 35.1342 89.8503 38.1939 82.2821 43.9824C76.3454 34.1482 65.793 28.1373 54.1722 28.1373C48.7779 28.1373 43.4207 29.479 38.6815 32.0182C37.3975 32.7063 36.9154 34.3048 37.6021 35.5874C38.2901 36.8715 39.8886 37.3549 41.1726 36.6668C45.1483 34.5355 49.6431 33.4094 54.1722 33.4094C64.2371 33.4094 73.3461 38.7817 78.2336 47.509C73.4697 52.2056 69.8181 57.9899 67.6552 64.2975C64.3277 63.3018 60.8093 62.7649 57.1729 62.7649C49.5648 62.7649 42.2685 65.0761 36.0736 69.4487C30.4994 73.3818 26.1832 78.706 23.5107 84.9188C21.3011 85.0973 19.1492 85.5601 17.0947 86.2825C13.4143 83.8023 11.169 79.6454 11.169 75.1629C11.169 67.9023 16.8503 62.0205 24.104 61.7706C25.4636 61.7239 26.5636 60.6514 26.646 59.2946C27.003 53.3922 29.2058 47.866 33.0139 43.3122C33.9478 42.1943 33.7994 40.5313 32.683 39.5974C31.5651 38.6636 29.902 38.8119 28.9682 39.9284C24.9197 44.7706 22.3943 50.5371 21.595 56.7238C12.6247 58.1424 5.89554 65.8369 5.89554 75.1643C5.89554 80.413 8.10242 85.3445 11.8488 88.834C10.2544 89.8544 8.7616 91.0588 7.39792 92.4362C2.62711 97.2592 0 103.652 0 110.437C0 124.556 11.4876 136.044 25.6064 136.044H27.345C27.2722 136.424 27.2063 136.806 27.1513 137.19C19.8743 138.522 14.4635 144.84 14.4635 152.47C14.4635 161.04 21.4357 168.013 30.005 168.013H144.849C156.257 168.013 165.538 158.73 165.538 147.324C165.538 143.074 164.276 139.131 162.099 135.851C172.191 134.485 180 125.818 180 115.355ZM76.3824 162.739H30.005C24.343 162.739 19.7356 158.132 19.7356 152.47C19.7356 146.909 24.0889 142.402 29.6452 142.211C31.0034 142.164 32.1048 141.092 32.1858 139.735C32.4989 134.573 34.6632 129.68 38.2805 125.96C39.2967 124.916 39.2734 123.246 38.2297 122.231C37.186 121.216 35.5161 121.24 34.5012 122.283C32.0993 124.752 30.2179 127.641 28.9215 130.77H25.6078C14.3948 130.77 5.27344 121.649 5.27344 110.437C5.27344 99.3631 14.2822 90.2444 25.3564 90.1098C26.4441 90.0975 27.4123 89.4177 27.794 88.4001C32.3589 76.2217 44.165 68.0397 57.1729 68.0397C73.7279 68.0397 87.4786 80.9706 88.477 97.4789C88.5594 98.8357 89.6594 99.9083 91.019 99.955C91.5134 99.9714 92.0036 100.017 92.4884 100.08C91.7949 100.503 91.1124 100.945 90.4436 101.418C84.8694 105.351 80.5531 110.673 77.8821 116.888C74.924 117.124 72.0731 117.87 69.3745 119.1C64.91 115.94 59.4965 114.122 53.8165 114.122C51.0315 114.122 48.2726 114.552 45.6166 115.399C44.2296 115.843 43.4633 117.326 43.9069 118.713C44.3491 120.1 45.8336 120.866 47.2206 120.422C49.3575 119.741 51.5767 119.395 53.8165 119.395C62.8033 119.395 70.9621 125.048 74.1151 133.462C74.4969 134.481 75.4651 135.161 76.5527 135.173C84.0605 135.264 90.1675 141.446 90.1675 148.954C90.1675 156.555 83.9836 162.739 76.3824 162.739ZM144.849 162.739H89.5221C93.1654 159.265 95.441 154.372 95.441 148.954C95.441 139.171 87.9414 131.017 78.3902 130.005C77.2256 127.424 75.667 125.081 73.8103 123.032C75.7109 122.427 77.6884 122.103 79.7264 122.079C80.8141 122.066 81.7822 121.387 82.164 120.368C86.7288 108.191 98.535 100.009 111.543 100.009C114.099 100.009 116.64 100.316 119.099 100.923C120.512 101.273 121.941 100.411 122.292 98.9964C122.64 97.5833 121.778 96.1537 120.363 95.8035C117.493 95.0949 114.526 94.7351 111.543 94.7351C107.402 94.7351 103.355 95.4245 99.5265 96.7538C97.6231 95.8255 95.6168 95.2006 93.5335 94.8944C91.9611 82.0802 83.7776 71.3768 72.5853 66.1693C77.72 50.9175 92.2234 40.4077 108.45 40.4077C129.312 40.4077 146.284 57.3802 146.284 78.2432C146.284 87.9455 142.655 97.0889 136.041 104.128C134.901 103.107 133.691 102.147 132.413 101.26C131.217 100.427 129.574 100.724 128.743 101.922C127.912 103.116 128.209 104.76 129.405 105.591C137.365 111.117 142.265 119.813 142.847 129.446C142.929 130.805 144.029 131.876 145.389 131.922C153.73 132.209 160.264 138.974 160.264 147.324C160.264 155.823 153.349 162.739 144.849 162.739ZM159.311 130.77H157.501C157.438 130.77 157.376 130.776 157.315 130.78C154.624 128.757 151.416 127.375 147.905 126.862C147.044 119.811 144.186 113.277 139.71 107.926C146.707 100.566 150.813 91.1563 151.464 81.0791C154.91 85.854 156.949 91.5106 157.31 97.4789C157.393 98.8357 158.493 99.9083 159.852 99.955C168.192 100.242 174.727 107.007 174.727 115.355C174.727 123.856 167.812 130.77 159.311 130.77Z" fill="#2D3638"/>
<path d="M160.398 78.2433C160.398 79.699 161.579 80.88 163.034 80.88H171.751C173.208 80.88 174.387 79.699 174.387 78.2433C174.387 76.7876 173.208 75.6066 171.751 75.6066H163.034C161.579 75.6066 160.398 76.7876 160.398 78.2433Z" fill="#2D3638"/>
<path d="M155.724 53.5872C156.171 53.5872 156.624 53.4746 157.04 53.2343L164.589 48.8755C165.85 48.1476 166.282 46.5354 165.554 45.2747C164.825 44.0126 163.213 43.5814 161.952 44.3093L154.403 48.6667C153.143 49.3959 152.71 51.0082 153.438 52.2689C153.927 53.1148 154.813 53.5872 155.724 53.5872Z" fill="#2D3638"/>
<path d="M134.423 33.2543C134.839 33.4946 135.293 33.6086 135.739 33.6086C136.651 33.6086 137.536 33.1362 138.025 32.2902L142.384 24.7412C143.112 23.4792 142.679 21.8669 141.419 21.1391C140.157 20.4099 138.544 20.8425 137.817 22.1045L133.458 29.6535C132.73 30.9142 133.163 32.5264 134.423 33.2543Z" fill="#2D3638"/>
<path d="M108.45 26.2958C109.906 26.2958 111.087 25.1147 111.087 23.6591V14.9414C111.087 13.4857 109.906 12.3047 108.45 12.3047C106.993 12.3047 105.813 13.4857 105.813 14.9414V23.6577C105.813 25.1147 106.993 26.2958 108.45 26.2958Z" fill="#2D3638"/>
<path d="M78.8736 32.2902C79.3625 33.1362 80.2483 33.6086 81.1602 33.6086C81.6078 33.6086 82.061 33.4946 82.4758 33.2543C83.7364 32.5264 84.169 30.9142 83.4412 29.6535L79.0824 22.1045C78.3545 20.8425 76.7423 20.4099 75.4816 21.1391C74.2195 21.8669 73.7883 23.4792 74.5162 24.7412L78.8736 32.2902Z" fill="#2D3638"/>
<path d="M136.11 121.565C135.531 120.229 133.98 119.614 132.643 120.192C131.306 120.77 130.692 122.322 131.27 123.658C131.788 124.858 132.205 126.109 132.51 127.377C132.801 128.587 133.881 129.398 135.073 129.398C135.276 129.398 135.483 129.375 135.691 129.326C137.107 128.985 137.979 127.561 137.638 126.145C137.263 124.582 136.748 123.041 136.11 121.565Z" fill="#2D3638"/>
<path d="M130.551 113.21C125.156 107.589 117.907 104.494 110.137 104.494C108.681 104.494 107.5 105.675 107.5 107.13C107.5 108.586 108.681 109.767 110.137 109.767C116.456 109.767 122.355 112.287 126.747 116.862C127.264 117.401 127.956 117.673 128.649 117.673C129.306 117.673 129.964 117.429 130.475 116.938C131.526 115.93 131.56 114.26 130.551 113.21Z" fill="#2D3638"/>
</g>
<defs>
<clipPath id="clip0">
<rect width="180" height="180" fill="white"/>
</clipPath>
</defs>
</svg>
