<svg width="24" height="24" viewBox="0 0 24 24" fill="none" xmlns="http://www.w3.org/2000/svg">
<path d="M14.2525 19.4952C14.6671 19.4952 15.0033 19.159 15.0033 18.7443C15.0033 18.3297 14.6671 17.9935 14.2525 17.9935C13.8378 17.9935 13.5016 18.3297 13.5016 18.7443C13.5016 19.159 13.8378 19.4952 14.2525 19.4952Z" fill="#2D3638"/>
<path d="M9.74757 11.987C10.1622 11.987 10.4984 11.6509 10.4984 11.2362C10.4984 10.8216 10.1622 10.4854 9.74757 10.4854C9.33291 10.4854 8.99677 10.8216 8.99677 11.2362C8.99677 11.6509 9.33291 11.987 9.74757 11.987Z" fill="#2D3638"/>
<path d="M16.1685 5.2658C14.9402 3.69961 13.6713 2.08087 12.6472 0.343495C12.3769 -0.114498 11.6231 -0.114498 11.3543 0.343495C10.3287 2.08087 9.05984 3.69961 7.83151 5.2658C5.34183 8.44173 2.9903 11.442 2.9903 14.9903C2.9903 19.9591 7.03115 24 12 24C16.9689 24 21.0097 19.9591 21.0097 14.9903C21.0097 11.442 18.6582 8.44173 16.1685 5.2658ZM9.74758 8.98381C10.9894 8.98381 12 9.9944 12 11.2362C12 12.4781 10.9894 13.4887 9.74758 13.4887C8.50574 13.4887 7.49515 12.4781 7.49515 11.2362C7.49515 9.9944 8.50574 8.98381 9.74758 8.98381ZM8.77753 19.2759C8.63038 19.4216 8.43817 19.4951 8.24596 19.4951C8.05375 19.4951 7.86155 19.4216 7.71439 19.2759C7.42157 18.9831 7.42157 18.5071 7.71439 18.2143L15.2225 10.7062C15.5153 10.4134 15.9913 10.4134 16.2841 10.7062C16.5769 10.999 16.5784 11.475 16.2856 11.7678L8.77753 19.2759ZM14.2524 20.9968C13.0106 20.9968 12 19.9862 12 18.7443C12 17.5025 13.0106 16.4919 14.2524 16.4919C15.4943 16.4919 16.5049 17.5025 16.5049 18.7443C16.5049 19.9862 15.4943 20.9968 14.2524 20.9968Z" fill="#2D3638"/>
</svg>
