<svg width="14" height="14" viewBox="0 0 14 14" fill="none" xmlns="http://www.w3.org/2000/svg">
<path d="M4.31255 8.3076C2.632 5.93452 3.19406 2.64849 5.56714 0.968347C7.94022 -0.7118 11.2262 -0.150145 12.9064 2.22334C14.5865 4.59642 14.0249 7.88204 11.6514 9.56219C9.9576 10.7614 7.71821 10.8537 5.93167 9.79866L2.04987 13.6572C1.63074 14.0984 0.933386 14.1161 0.492172 13.6969C0.0509577 13.2782 0.0332928 12.5808 0.452025 12.1396C0.465274 12.1256 0.478121 12.1127 0.492172 12.0995L4.31255 8.3076ZM8.61268 8.66732C10.4879 8.66772 12.0083 7.14856 12.0095 5.2733C12.0099 3.39804 10.4908 1.87767 8.61509 1.87687C6.74224 1.87607 5.22268 3.39282 5.21907 5.26567C5.21586 7.14133 6.73421 8.6641 8.61028 8.66732C8.61108 8.66732 8.61148 8.66732 8.61268 8.66732Z" fill="#06070B"/>
</svg>
