<svg width="27" height="36" viewBox="0 0 27 36" fill="none" xmlns="http://www.w3.org/2000/svg">
<path d="M13.0378 0C5.84873 0 0 5.84873 0 13.0378C0 21.9596 11.6676 35.0573 12.1643 35.6105C12.6309 36.1302 13.4456 36.1293 13.9113 35.6105C14.4081 35.0573 26.0757 21.9596 26.0757 13.0378C26.0755 5.84873 20.2269 0 13.0378 0ZM13.0378 19.5974C9.42082 19.5974 6.47824 16.6548 6.47824 13.0378C6.47824 9.42075 9.42089 6.47817 13.0378 6.47817C16.6548 6.47817 19.5974 9.42082 19.5974 13.0378C19.5974 16.6549 16.6548 19.5974 13.0378 19.5974Z" fill="#2D3638"/>
</svg>
