<svg width="512" height="512" viewBox="0 0 512 512" fill="none" xmlns="http://www.w3.org/2000/svg">
<g clip-path="url(#clip0)">
<path d="M489.873 227.832C494.627 221.132 493.177 211.754 486.634 206.886C470.231 194.682 463.368 173.052 469.633 153.307C472.132 145.43 467.923 136.97 460.231 134.411C440.948 127.995 427.893 109.596 427.893 88.8339C427.893 80.552 421.336 73.8381 413.248 73.8381C392.973 73.8381 375.004 60.4693 368.739 40.7246C366.24 32.8477 357.979 28.5377 350.286 31.0967C331.004 37.5126 309.88 30.4837 297.963 13.6879C293.209 6.98801 284.051 5.50203 277.508 10.37C261.105 22.5738 238.895 22.5738 222.492 10.37C215.948 5.50203 206.79 6.98702 202.036 13.6869C190.118 30.4837 168.994 37.5116 149.712 31.0967C142.02 28.5377 133.759 32.8477 131.26 40.7246C124.994 60.4703 107.026 73.8381 86.7506 73.8381C78.6628 73.8381 72.1063 80.552 72.1063 88.8339C72.1063 109.596 59.0508 127.995 39.7689 134.411C32.0766 136.97 27.8677 145.43 30.3667 153.307C36.6322 173.053 29.7691 194.683 13.366 206.887C6.82215 211.755 5.37198 221.133 10.1258 227.833C22.0436 244.63 22.0436 267.373 10.1258 284.17C5.37198 290.87 6.82215 300.248 13.365 305.116C29.7681 317.32 36.6313 338.95 30.3657 358.695C27.8667 366.572 32.0757 375.032 39.7679 377.591C59.0508 384.007 72.1063 402.407 72.1063 423.168C72.1063 431.45 78.6628 438.164 86.7506 438.164C107.026 438.164 124.995 451.533 131.26 471.278C133.759 479.155 142.02 483.464 149.712 480.906C168.995 474.49 190.119 481.519 202.036 498.314C206.79 505.015 215.948 506.5 222.491 501.632C238.894 489.428 261.104 489.428 277.507 501.632C284.05 506.5 293.208 505.015 297.962 498.315C309.88 481.519 331.004 474.491 350.285 480.907C357.978 483.465 366.239 479.156 368.738 471.279C375.004 451.533 392.972 438.164 413.247 438.164C421.335 438.164 427.892 431.45 427.892 423.168C427.892 402.407 440.947 384.007 460.229 377.591C467.921 375.032 472.13 366.572 469.631 358.695C463.366 338.949 470.23 317.319 486.632 305.116C493.176 300.248 494.626 290.87 489.872 284.17C477.956 267.372 477.956 244.628 489.873 227.832V227.832Z" fill="#FFE7BA"/>
<path d="M250 50.0034V461.998C361.103 461.998 451.169 369.77 451.169 256.001C451.169 142.231 361.102 50.0034 250 50.0034V50.0034Z" fill="#FFB940"/>
<path d="M421.873 256.001C421.873 142.232 344.923 50.0039 250 50.0039C138.898 50.0039 48.8318 142.232 48.8318 256.001C48.8318 369.771 138.898 461.998 250 461.998C344.923 461.998 421.873 369.77 421.873 256.001Z" fill="#FFD17E"/>
<path d="M168.458 164.175C160.369 164.175 153.81 170.891 153.81 179.175V209.175C153.81 217.459 160.369 224.175 168.458 224.175C176.548 224.175 183.107 217.459 183.107 209.175V179.175C183.107 170.891 176.548 164.175 168.458 164.175Z" fill="#3D5168"/>
<path d="M331.542 164.175C323.452 164.175 316.893 170.891 316.893 179.175V209.175C316.893 217.459 323.452 224.175 331.542 224.175C339.632 224.175 346.19 217.459 346.19 209.175V179.175C346.19 170.891 339.632 164.175 331.542 164.175Z" fill="#3D5168"/>
<path d="M333.179 254.174C330.132 254.925 327.077 255.628 324.018 256.295L308.849 313.086C313.62 316.471 318.103 320.253 322.246 324.391C336.311 310.348 346.5 292.252 350.977 271.932C353.36 261.115 343.707 251.578 333.179 254.174V254.174Z" fill="#FF764C"/>
<path d="M166.821 254.174C156.293 251.578 146.64 261.114 149.024 271.931C153.501 292.25 163.69 310.347 177.755 324.39L308.849 313.085C317.445 297.131 322.934 277.587 324.017 256.295C272.162 267.606 218.443 266.903 166.821 254.174V254.174Z" fill="#FF9A42"/>
<path d="M252.172 354.451C279.42 353.875 304.076 342.532 322.247 324.39C318.103 320.253 313.621 316.47 308.849 313.085L252.172 354.451Z" fill="#F0224E"/>
<path d="M308.848 313.085C292.139 301.232 271.866 294.28 250 294.28C221.89 294.28 196.408 305.766 177.754 324.39C196.408 343.013 221.889 354.499 250 354.499C250.727 354.499 251.447 354.466 252.172 354.45C275.252 353.502 295.691 337.503 308.848 313.085V313.085Z" fill="#FF4C50"/>
<path d="M495.799 279.76C485.715 265.548 485.715 246.451 495.799 232.24C502.919 222.205 500.739 208.109 490.938 200.818C477.06 190.493 471.297 172.331 476.598 155.624C480.341 143.827 474.014 131.111 462.495 127.277C446.178 121.848 435.217 106.399 435.217 88.8328C435.217 76.429 425.362 66.3371 413.248 66.3371C396.093 66.3371 381.006 55.1123 375.704 38.4055C373.891 32.6906 370.013 28.0406 364.784 25.3127C359.556 22.5837 353.603 22.1047 348.022 23.9617C331.709 29.3866 313.97 23.4887 303.887 9.27689C296.766 -0.757972 283 -2.99294 273.202 4.29996C259.323 14.6238 240.674 14.6238 226.795 4.29996C216.996 -2.99294 203.229 -0.758972 196.11 9.27689C186.026 23.4877 168.288 29.3886 151.974 23.9617C140.457 20.1277 128.036 26.6077 124.293 38.4045C118.991 55.1113 103.905 66.3361 86.7495 66.3361C74.6364 66.3361 64.7811 76.428 64.7811 88.8318C64.7811 106.398 53.8194 121.848 37.5042 127.276C25.9839 131.109 19.6569 143.826 23.4 155.623C28.7016 172.33 22.938 190.492 9.06034 200.817C4.31334 204.348 1.1923 209.562 0.274347 215.498C-0.643608 221.433 0.749925 227.378 4.19909 232.239C14.2819 246.451 14.2819 265.548 4.19909 279.759C-2.92189 289.794 -0.741262 303.89 9.05936 311.181C22.938 321.506 28.7007 339.668 23.4 356.375C19.6569 368.172 25.9839 380.889 37.5042 384.722C53.8194 390.15 64.7811 405.599 64.7811 423.166C64.7811 435.57 74.6355 445.662 86.7495 445.662C103.905 445.662 118.992 456.887 124.294 473.594C126.106 479.308 129.985 483.958 135.214 486.686C140.442 489.414 146.394 489.892 151.976 488.037C168.288 482.61 186.027 488.509 196.111 502.722C200.404 508.773 207.114 511.988 213.913 511.988C218.389 511.988 222.906 510.594 226.796 507.699C240.675 497.374 259.325 497.374 273.203 507.699C283.002 514.991 296.768 512.759 303.888 502.722C313.971 488.511 331.709 482.609 348.023 488.037C353.603 489.894 359.556 489.414 364.785 486.686C370.014 483.958 373.891 479.308 375.705 473.594C381.007 456.887 396.094 445.661 413.248 445.662C425.361 445.662 435.217 435.57 435.217 423.166C435.217 405.599 446.178 390.149 462.494 384.722C474.014 380.889 480.341 368.172 476.598 356.375C471.296 339.668 477.059 321.506 490.937 311.181C495.684 307.65 498.806 302.436 499.723 296.5C500.641 290.567 499.248 284.622 495.799 279.76V279.76ZM483.948 288.577C485.098 290.197 485.562 292.179 485.256 294.155C484.95 296.134 483.91 297.87 482.328 299.048C463.299 313.204 455.398 338.106 462.667 361.012C463.914 364.944 461.806 369.181 457.967 370.458C435.598 377.899 420.568 399.083 420.568 423.168C420.568 427.302 417.284 430.664 413.245 430.664C389.727 430.664 369.041 446.055 361.774 468.961C361.169 470.865 359.877 472.414 358.135 473.323C356.394 474.232 354.41 474.393 352.55 473.773C330.181 466.329 305.862 474.42 292.038 493.906C290.889 495.525 289.192 496.591 287.261 496.903C285.329 497.218 283.396 496.741 281.813 495.564C262.786 481.408 237.217 481.408 218.186 495.564C216.604 496.741 214.667 497.218 212.739 496.903C210.807 496.59 209.111 495.525 207.961 493.906C197.561 479.248 181.224 471.039 164.244 471.039C158.652 471.039 152.991 471.93 147.449 473.773C145.588 474.393 143.606 474.232 141.864 473.323C140.122 472.414 138.83 470.865 138.225 468.961C130.957 446.055 110.271 430.664 86.7505 430.664C82.7144 430.664 79.4303 427.302 79.4303 423.168C79.4303 399.083 64.4003 377.899 42.0315 370.458C38.1927 369.181 36.0843 364.943 37.3314 361.012C44.5998 338.106 36.6995 313.204 17.6706 299.048C16.0885 297.871 15.0485 296.134 14.7429 294.156C14.4372 292.178 14.902 290.197 16.0514 288.577C29.8754 269.092 29.8754 242.909 16.0514 223.424C14.902 221.804 14.4382 219.822 14.7438 217.846C15.0495 215.867 16.0895 214.131 17.6715 212.953C36.6996 198.797 44.6008 173.895 37.3324 150.989C36.0853 147.057 38.1937 142.82 42.0325 141.543C64.4013 134.1 79.4303 112.917 79.4303 88.8328C79.4303 84.6989 82.7144 81.3369 86.7505 81.3369C110.271 81.3369 130.957 65.9461 138.225 43.0404C139.473 39.1095 143.614 36.9515 147.449 38.2275C169.819 45.6704 194.136 37.5805 207.96 18.0938C210.334 14.7508 214.918 14.0068 218.186 16.4358C237.213 30.5916 262.783 30.5926 281.812 16.4358C283.394 15.2588 285.327 14.7808 287.259 15.0968C289.191 15.4098 290.887 16.4748 292.036 18.0938C305.862 37.5795 330.181 45.6694 352.549 38.2275C354.409 37.6075 356.393 37.7695 358.134 38.6775C359.876 39.5865 361.168 41.1355 361.773 43.0394C369.041 65.9451 389.727 81.3359 413.247 81.3359C417.283 81.3359 420.567 84.6979 420.567 88.8318C420.567 112.916 435.598 134.1 457.966 141.542C461.805 142.819 463.913 147.057 462.666 150.988C455.398 173.894 463.299 198.796 482.328 212.952C483.91 214.129 484.95 215.866 485.256 217.844C485.562 219.822 485.097 221.803 483.948 223.423C470.123 242.909 470.123 269.092 483.948 288.577V288.577Z" fill="#2D3638"/>
<path d="M168.458 231.674C180.574 231.674 190.431 221.58 190.431 209.174V179.174C190.431 166.769 180.574 156.675 168.458 156.675C156.342 156.675 146.486 166.769 146.486 179.174V209.174C146.486 221.58 156.342 231.674 168.458 231.674ZM161.134 179.174C161.134 175.039 164.419 171.675 168.458 171.675C172.497 171.675 175.782 175.039 175.782 179.174V209.174C175.782 213.31 172.497 216.674 168.458 216.674C164.419 216.674 161.134 213.31 161.134 209.174V179.174Z" fill="#2D3638"/>
<path d="M353.514 209.174V179.174C353.514 166.769 343.657 156.675 331.541 156.675C319.425 156.675 309.569 166.769 309.569 179.174V209.174C309.569 221.58 319.425 231.674 331.541 231.674C343.657 231.674 353.514 221.58 353.514 209.174ZM324.217 209.174V179.174C324.217 175.039 327.502 171.675 331.541 171.675C335.58 171.675 338.866 175.039 338.866 179.174V209.174C338.866 213.31 335.58 216.674 331.541 216.674C327.502 216.674 324.217 213.309 324.217 209.174Z" fill="#2D3638"/>
<path d="M141.878 273.582C147.325 298.301 160.977 320.742 180.319 336.77C199.951 353.039 224.696 361.999 249.999 361.999C275.301 361.999 300.047 353.039 319.678 336.77C339.021 320.742 352.673 298.3 358.119 273.582C359.788 266.009 357.553 258.227 352.14 252.763C346.667 247.238 338.938 245.039 331.462 246.882C278.168 260.024 221.828 260.024 168.534 246.882C161.058 245.04 153.33 247.238 147.858 252.763C142.445 258.226 140.21 266.009 141.878 273.582ZM188.834 324.281C206.035 309.719 227.465 301.78 250 301.78C272.535 301.78 293.965 309.719 311.166 324.281C294.315 338.516 272.834 346.999 250 346.999C227.165 346.999 205.684 338.516 188.834 324.281V324.281ZM158.142 263.444C158.87 262.709 160.657 261.237 163.29 261.237C163.858 261.237 164.464 261.305 165.107 261.465C220.645 275.161 279.356 275.16 334.893 261.465C338.528 260.568 340.973 262.551 341.858 263.444C342.714 264.307 344.62 266.704 343.831 270.281C340.183 286.839 332.414 301.701 321.803 313.839C301.766 296.339 276.547 286.78 250 286.78C223.452 286.78 198.235 296.339 178.196 313.839C167.585 301.701 159.817 286.838 156.168 270.281C155.379 266.704 157.285 264.307 158.142 263.444Z" fill="#2D3638"/>
<path d="M250 42.5039C200.767 42.5039 152.973 60.4197 115.42 92.9512C112.333 95.6262 111.947 100.358 114.56 103.52C117.172 106.683 121.794 107.077 124.882 104.402C159.792 74.1595 204.227 57.5037 250 57.5037C356.886 57.5037 443.845 146.549 443.845 256.001C443.845 365.453 356.886 454.498 250 454.498C143.114 454.498 56.1558 365.453 56.1558 256.001C56.1558 207.561 73.3957 160.904 104.701 124.629C107.38 121.525 107.093 116.785 104.062 114.042C101.031 111.299 96.4022 111.593 93.7245 114.695C60.0512 153.715 41.5076 203.898 41.5076 256.001C41.5076 373.724 135.037 469.498 250 469.498C364.963 469.498 458.493 373.724 458.493 256.001C458.493 138.278 364.963 42.5039 250 42.5039V42.5039Z" fill="#2D3638"/>
</g>
<defs>
<clipPath id="clip0">
<rect width="512" height="512" fill="white"/>
</clipPath>
</defs>
</svg>
