<svg width="180" height="180" viewBox="0 0 180 180" fill="none" xmlns="http://www.w3.org/2000/svg">
<g clip-path="url(#clip0)">
<path d="M154.296 45.8295C154.296 64.8317 138.892 80.2359 119.89 80.2359C100.889 80.2359 85.4846 64.8317 85.4846 45.8295C85.4846 26.8273 100.889 11.4244 119.89 11.4244C138.892 11.4244 154.296 26.8273 154.296 45.8295Z" fill="#F6CB43"/>
<path d="M85.6 43.0156C84.0468 61.9547 98.1381 78.5646 117.077 80.1192C133.689 81.4815 148.51 70.8083 152.948 55.3849C150.713 55.6472 148.423 55.6938 146.095 55.5016C127.156 53.9484 113.063 37.3371 114.618 18.398C114.809 16.0703 115.227 13.8181 115.849 11.6552C99.9097 13.5242 86.9623 26.4084 85.6 43.0156Z" fill="#FAB03C"/>
<path d="M27.3257 60.9865C28.8528 35.7509 49.7983 15.7557 75.4184 15.7557C96.0809 15.7557 113.702 28.7622 120.55 47.0338C138.344 47.2494 152.703 61.7321 152.703 79.5753C152.703 97.5531 138.128 112.128 120.151 112.128C112.625 112.128 35.9514 112.128 28.2184 112.128C14.09 112.128 2.63672 100.675 2.63672 86.5461C2.63672 72.7171 13.6107 61.4575 27.3257 60.9865Z" fill="#A09D9C"/>
<path d="M152.702 79.5767C152.702 96.692 139.491 110.727 122.702 112.03C126.877 106.559 129.353 99.7242 129.353 92.3139C129.353 74.4694 114.991 59.988 97.1988 59.7697C90.3529 41.5008 72.7295 28.4957 52.067 28.4957C48.4662 28.4957 44.9574 28.8899 41.5833 29.6424C50.2817 21.0552 62.2266 15.7571 75.4156 15.7571C96.0796 15.7571 113.703 28.7621 120.549 47.0352C138.344 47.2494 152.702 61.7307 152.702 79.5767Z" fill="#82807F"/>
<path d="M159.714 75.5654C158.621 57.5244 143.646 43.2299 125.331 43.2299C110.558 43.2299 97.9609 52.5284 93.0652 65.5912C80.3444 65.745 70.0776 76.0982 70.0776 88.8561C70.0776 101.709 80.4968 112.128 93.3494 112.128H159.074C169.174 112.128 177.363 103.94 177.363 93.8384C177.363 83.9521 169.518 75.9032 159.714 75.5654Z" fill="#F0F5F7"/>
<path d="M177.363 93.8398C177.363 103.862 169.299 112 159.309 112.125C160.939 109.39 161.878 106.187 161.878 102.772C161.878 92.8853 154.032 84.8365 144.229 84.4986C143.139 66.4591 128.161 52.1604 109.847 52.1604C106.784 52.1604 103.813 52.5586 100.986 53.3139C107.213 47.0847 115.821 43.2299 125.332 43.2299C143.646 43.2299 158.621 57.5272 159.714 75.5667C169.518 75.9046 177.363 83.9534 177.363 93.8398Z" fill="#DDE9ED"/>
<path d="M101.21 136.704C101.21 140.826 104.55 144.165 108.671 144.165C112.793 144.165 116.134 140.826 116.134 136.704C116.134 133.999 112.92 128.691 110.711 125.361C109.742 123.902 107.6 123.902 106.632 125.361C104.422 128.691 101.21 133.999 101.21 136.704Z" fill="#A0ECFF"/>
<path d="M101.21 136.704C101.21 140.824 104.55 144.165 108.671 144.165C109.705 144.165 110.689 143.955 111.585 143.576C108.909 142.442 107.034 139.791 107.034 136.704C107.034 134.339 109.49 129.985 111.583 126.701C111.283 126.232 110.991 125.782 110.715 125.366C109.745 123.904 107.603 123.9 106.633 125.361C104.424 128.691 101.21 133.999 101.21 136.704Z" fill="#60DAFF"/>
<path d="M67.5385 136.704C67.5385 140.826 70.8797 144.165 75.0009 144.165C79.1222 144.165 82.462 140.826 82.462 136.704C82.462 133.999 79.2485 128.691 77.0403 125.361C76.0721 123.902 73.9297 123.902 72.9616 125.361C70.752 128.691 67.5385 133.999 67.5385 136.704Z" fill="#A0ECFF"/>
<path d="M67.5398 136.704C67.5398 140.824 70.8783 144.165 75.0009 144.165C76.0336 144.165 77.0182 143.955 77.9136 143.576C75.2385 142.442 73.3639 139.791 73.3639 136.704C73.3639 134.339 75.818 129.985 77.9123 126.701C77.6129 126.232 77.3204 125.782 77.043 125.366C76.0748 123.904 73.9325 123.9 72.9615 125.361C70.7533 128.691 67.5398 133.999 67.5398 136.704Z" fill="#60DAFF"/>
<path d="M84.3737 161.209C84.3737 165.331 87.7149 168.672 91.8361 168.672C95.9574 168.672 99.2972 165.331 99.2972 161.209C99.2972 158.505 96.0837 153.196 93.8755 149.867C92.9073 148.408 90.765 148.408 89.7968 149.867C87.5872 153.198 84.3737 158.505 84.3737 161.209Z" fill="#A0ECFF"/>
<path d="M84.375 161.211C84.375 165.331 87.7135 168.672 91.8361 168.672C92.8688 168.672 93.8535 168.462 94.7502 168.081C92.0737 166.948 90.1991 164.296 90.1991 161.211C90.1991 158.846 92.6546 154.49 94.7475 151.208C94.4481 150.737 94.1556 150.289 93.8782 149.871C92.91 148.41 90.7677 148.406 89.7981 149.867C87.5885 153.196 84.375 158.505 84.375 161.211Z" fill="#60DAFF"/>
<path d="M50.7032 161.209C50.7032 165.331 54.0445 168.672 58.1657 168.672C62.287 168.672 65.6268 165.331 65.6268 161.209C65.6268 158.505 62.4133 153.196 60.2037 149.867C59.2355 148.408 57.0945 148.408 56.1264 149.867C53.9167 153.198 50.7032 158.505 50.7032 161.209Z" fill="#A0ECFF"/>
<path d="M50.7047 161.211C50.7047 165.331 54.0431 168.672 58.1657 168.672C59.1985 168.672 60.1831 168.462 61.0785 168.081C58.4033 166.948 56.5274 164.296 56.5274 161.211C56.5274 158.846 58.9828 154.49 61.0757 151.208C60.7764 150.737 60.4839 150.289 60.2078 149.871C59.2397 148.41 57.0959 148.406 56.1264 149.867C53.9168 153.196 50.7047 158.505 50.7047 161.211Z" fill="#60DAFF"/>
<path d="M162.138 73.1388C161.366 66.8217 159.008 61.0099 155.483 56.1004C156.16 53.7465 156.606 51.3172 156.808 48.859C157.555 39.75 154.926 30.7261 149.403 23.4476C148.523 22.2886 146.869 22.0606 145.709 22.9423C144.548 23.8225 144.322 25.476 145.202 26.6364C149.939 32.8766 152.194 40.6151 151.552 48.4264C151.478 49.3369 151.363 50.2405 151.212 51.1373C144.507 44.6032 135.354 40.5932 125.331 40.5932C123.775 40.5932 122.233 40.6934 120.71 40.8816C116.623 32.867 110.491 26.0734 102.897 21.1831C102.339 20.8246 101.773 20.4786 101.205 20.1421C107.321 15.7009 114.891 13.5434 122.488 14.1669C127.844 14.6064 133.027 16.404 137.475 19.3662C138.686 20.1737 140.323 19.8441 141.13 18.6329C141.936 17.4202 141.608 15.7833 140.397 14.9772C135.206 11.522 129.162 9.42357 122.919 8.91134C113.184 8.11483 103.491 11.2281 96.0411 17.4889C89.5866 14.6187 82.5787 13.1191 75.417 13.1191C63.0849 13.1191 51.1908 17.5947 41.9266 25.7204C40.8307 26.6817 40.7222 28.3475 41.6821 29.442C42.6421 30.5366 44.3079 30.645 45.4037 29.6851C53.7053 22.4039 64.3648 18.3925 75.417 18.3925C84.1882 18.3925 92.7026 20.8906 100.042 25.6174C106.43 29.7318 111.664 35.3486 115.312 41.9623C111.281 43.0898 107.455 44.9012 103.973 47.358C98.3249 51.3433 93.9523 56.7403 91.2497 63.0382C85.9845 63.4694 80.928 65.5129 76.848 68.8885C72.3683 72.5936 69.2345 77.7476 68.0219 83.4014C67.7156 84.8255 68.6234 86.2276 70.0461 86.5325C71.4716 86.8387 72.8723 85.931 73.1772 84.5069C74.1426 80.008 76.6393 75.9046 80.2084 72.952C83.8216 69.9624 88.3987 68.2842 93.0954 68.2279C94.183 68.2142 95.1512 67.5358 95.533 66.5168C100.162 54.1654 112.137 45.8666 125.329 45.8666C142.121 45.8666 156.068 58.9829 157.081 75.7261C157.162 77.0829 158.264 78.1554 159.622 78.2007C168.092 78.4932 174.727 85.3611 174.727 93.8384C174.727 102.47 167.705 109.491 159.074 109.491H93.3495C84.261 109.491 76.1229 103.405 73.5576 94.6912C73.1456 93.2946 71.6803 92.4967 70.2823 92.9073C68.8857 93.3179 68.0878 94.7832 68.4984 96.1812C70.0955 101.606 73.4134 106.217 77.7434 109.491H28.2184C15.5663 109.491 5.27344 99.1984 5.27344 86.5462C5.27344 80.5573 7.56683 74.8911 11.732 70.5913C15.8876 66.3025 21.4577 63.8265 27.415 63.6219C28.7746 63.5752 29.8746 62.5027 29.957 61.1458C30.4651 52.7427 33.2941 44.6595 38.1377 37.7724C38.9754 36.5818 38.6897 34.9366 37.4977 34.0989C36.3071 33.2612 34.6619 33.5482 33.8255 34.7388C28.8625 41.7962 25.7932 49.9782 24.884 58.5297C18.4488 59.285 12.5038 62.2156 7.94449 66.9233C2.82074 72.2118 0 79.1813 0 86.5462C0 102.106 12.659 114.765 28.2184 114.765H159.074C170.612 114.765 180 105.377 180 93.8384C180 83.2956 172.325 74.6137 162.138 73.1388Z" fill="#2D3638"/>
<path d="M145.08 73.8555C145.242 74.7001 145.35 75.5666 145.404 76.4318C145.488 77.8312 146.65 78.9092 148.032 78.9092C148.086 78.9092 148.141 78.9079 148.195 78.9051C149.649 78.8158 150.756 77.5662 150.666 76.1132C150.601 75.0228 150.463 73.9283 150.259 72.8613C149.984 71.4317 148.604 70.4951 147.171 70.7697C145.742 71.0444 144.805 72.4259 145.08 73.8555Z" fill="#2D3638"/>
<path d="M138.001 55.6842C136.74 54.9564 135.128 55.389 134.4 56.6496C133.672 57.9103 134.103 59.5239 135.364 60.2518C138.378 61.9917 140.905 64.4939 142.671 67.4863C143.163 68.3199 144.042 68.7827 144.944 68.7827C145.4 68.7827 145.861 68.6646 146.283 68.4174C147.537 67.6772 147.953 66.0594 147.213 64.8056C144.985 61.0332 141.801 57.8787 138.001 55.6842Z" fill="#2D3638"/>
<path d="M161.158 126.097C161.154 126.097 161.152 126.097 161.149 126.097H161.102C159.646 126.102 158.47 127.286 158.475 128.743C158.48 130.196 159.66 131.37 161.112 131.37H161.121H161.168C162.624 131.363 163.801 130.18 163.795 128.723C163.79 127.27 162.61 126.097 161.158 126.097Z" fill="#2D3638"/>
<path d="M147.123 128.723C147.118 127.27 145.938 126.097 144.487 126.097C144.484 126.097 144.48 126.097 144.477 126.097H144.43C142.975 126.102 141.799 127.286 141.803 128.743C141.809 130.196 142.988 131.37 144.44 131.37H144.451H144.496C145.952 131.363 147.129 130.18 147.123 128.723Z" fill="#2D3638"/>
<path d="M50.728 131.37H50.7733C52.229 131.363 53.4059 130.18 53.4004 128.723C53.3949 127.27 52.2153 126.097 50.7637 126.097C50.761 126.097 50.7569 126.097 50.7541 126.097H50.7074C49.2517 126.102 48.0762 127.286 48.0817 128.743C48.0872 130.195 49.2655 131.37 50.717 131.37H50.728Z" fill="#2D3638"/>
<path d="M36.7287 128.723C36.7232 127.27 35.5449 126.097 34.0933 126.097C34.0892 126.097 34.0851 126.097 34.0824 126.097H34.037C32.58 126.102 31.4044 127.286 31.4099 128.743C31.4154 130.196 32.5951 131.37 34.0466 131.37H34.0563H34.103C35.5586 131.363 36.7342 130.18 36.7287 128.723Z" fill="#2D3638"/>
<path d="M147.703 139.551C147.699 139.551 147.696 139.551 147.693 139.551H147.647C146.191 139.558 145.015 140.742 145.021 142.199C145.026 143.652 146.205 144.824 147.656 144.824H147.667H147.713C149.168 144.819 150.345 143.635 150.34 142.178C150.334 140.725 149.154 139.551 147.703 139.551Z" fill="#2D3638"/>
<path d="M133.668 142.178C133.662 140.725 132.483 139.551 131.031 139.551C131.028 139.551 131.024 139.551 131.022 139.551H130.976C129.519 139.558 128.344 140.742 128.349 142.199C128.355 143.652 129.533 144.824 130.984 144.824H130.995H131.041C132.498 144.819 133.673 143.635 133.668 142.178Z" fill="#2D3638"/>
<path d="M37.3082 139.551C37.3054 139.551 37.3013 139.551 37.2986 139.551H37.2519C35.7962 139.558 34.6206 140.742 34.6248 142.199C34.6316 143.652 35.8099 144.824 37.2615 144.824H37.2725H37.3178C38.7735 144.819 39.9504 143.635 39.9449 142.178C39.9394 140.725 38.7597 139.551 37.3082 139.551Z" fill="#2D3638"/>
<path d="M23.2732 142.178C23.2677 140.723 22.0798 139.54 20.6269 139.551H20.5815C19.1245 139.558 17.9489 140.742 17.9544 142.199C17.9599 143.652 19.1396 144.825 20.5911 144.825H20.6008H20.6461C22.1031 144.819 23.2787 143.635 23.2732 142.178Z" fill="#2D3638"/>
<path d="M134.247 153.007C134.243 153.007 134.241 153.007 134.236 153.007H134.191C132.735 153.012 131.56 154.197 131.564 155.653C131.569 157.107 132.749 158.28 134.201 158.28H134.212H134.257C135.713 158.275 136.888 157.089 136.884 155.634C136.879 154.181 135.699 153.007 134.247 153.007Z" fill="#2D3638"/>
<path d="M117.576 153.007C117.573 153.007 117.569 153.007 117.566 153.007H117.519C116.064 153.012 114.888 154.197 114.894 155.653C114.899 157.107 116.077 158.28 117.529 158.28H117.54H117.585C119.041 158.275 120.218 157.089 120.212 155.634C120.207 154.181 119.027 153.007 117.576 153.007Z" fill="#2D3638"/>
<path d="M23.8527 153.007C23.85 153.007 23.8458 153.007 23.8431 153.007H23.7978C22.3407 153.012 21.1652 154.197 21.1707 155.653C21.1762 157.107 22.3558 158.28 23.8074 158.28H23.817H23.8623C25.3194 158.275 26.4949 157.089 26.4894 155.634C26.4839 154.181 25.3043 153.007 23.8527 153.007Z" fill="#2D3638"/>
<path d="M7.18233 153.007C7.17821 153.007 7.17409 153.007 7.17134 153.007H7.12603C5.67034 153.012 4.49343 154.197 4.49892 155.653C4.50441 157.107 5.68407 158.28 7.13564 158.28H7.14525H7.19057C8.64763 158.275 9.82317 157.089 9.81768 155.634C9.81218 154.181 8.6339 153.007 7.18233 153.007Z" fill="#2D3638"/>
<path d="M118.77 136.704C118.77 135.724 118.77 132.74 112.908 123.904C111.963 122.48 110.38 121.63 108.671 121.63C106.964 121.63 105.379 122.48 104.435 123.904C98.5721 132.74 98.5721 135.724 98.5721 136.704C98.5721 142.273 103.103 146.803 108.671 146.803C114.24 146.803 118.77 142.273 118.77 136.704ZM108.671 141.529C106.011 141.529 103.846 139.364 103.846 136.704C103.846 135.625 105.113 132.455 108.671 127.057C112.228 132.455 113.497 135.625 113.497 136.704C113.497 139.364 111.333 141.529 108.671 141.529Z" fill="#2D3638"/>
<path d="M85.1001 136.704C85.1001 135.724 85.1001 132.738 79.2375 123.904C78.2927 122.48 76.7093 121.63 75.0009 121.63C73.2925 121.63 71.7091 122.48 70.7643 123.904C64.9017 132.74 64.9017 135.724 64.9017 136.704C64.9017 142.273 69.4322 146.803 75.0009 146.803C80.5696 146.803 85.1001 142.273 85.1001 136.704ZM75.0009 141.529C72.3409 141.529 70.1752 139.364 70.1752 136.704C70.1752 135.625 71.4427 132.457 75.0009 127.058C78.5577 132.455 79.8267 135.623 79.8267 136.704C79.8267 139.364 77.661 141.529 75.0009 141.529Z" fill="#2D3638"/>
<path d="M91.8361 146.136C90.1277 146.136 88.5443 146.986 87.5995 148.409C81.7369 157.245 81.7369 160.229 81.7369 161.209C81.7369 166.778 86.2674 171.308 91.8361 171.308C97.4048 171.308 101.935 166.778 101.935 161.209C101.935 160.229 101.935 157.246 96.0727 148.41C95.1279 146.986 93.5445 146.136 91.8361 146.136ZM91.8361 166.035C89.1761 166.035 87.0104 163.871 87.0104 161.209C87.0104 160.13 88.2779 156.962 91.8361 151.563C95.3929 156.962 96.6619 160.13 96.6619 161.209C96.6605 163.869 94.4962 166.035 91.8361 166.035Z" fill="#2D3638"/>
<path d="M58.1657 146.136C56.4573 146.136 54.8739 146.986 53.9291 148.409C48.0665 157.245 48.0665 160.229 48.0665 161.209C48.0665 166.778 52.597 171.308 58.1643 171.308C63.733 171.308 68.2635 166.778 68.2635 161.209C68.2635 160.229 68.2635 157.246 62.4009 148.409C61.4575 146.986 59.8727 146.136 58.1657 146.136ZM58.1643 166.035C55.5043 166.035 53.34 163.871 53.34 161.209C53.34 160.13 54.6075 156.962 58.1657 151.563C61.7225 156.962 62.9901 160.13 62.9901 161.209C62.9901 163.869 60.8258 166.035 58.1643 166.035Z" fill="#2D3638"/>
</g>
<defs>
<clipPath id="clip0">
<rect width="180" height="180" fill="white"/>
</clipPath>
</defs>
</svg>
