<svg width="18" height="18" viewBox="0 0 18 18" fill="none" xmlns="http://www.w3.org/2000/svg">
<path d="M12.4553 10.6812C14.616 7.63008 13.8933 3.40519 10.8422 1.245C7.79113 -0.915187 3.56625 -0.193059 1.40606 2.85856C-0.754131 5.90967 -0.0320029 10.134 3.01962 12.2942C5.19736 13.836 8.07658 13.9548 10.3736 12.5983L15.3644 17.5592C15.9033 18.1265 16.7999 18.1492 17.3672 17.6103C17.9345 17.0719 17.9572 16.1753 17.4188 15.6081C17.4018 15.59 17.3853 15.5735 17.3672 15.5565L12.4553 10.6812ZM6.92654 11.1437C4.51549 11.1442 2.56074 9.19099 2.55919 6.77994C2.55868 4.36889 4.51188 2.41414 6.92345 2.4131C9.3314 2.41207 11.2851 4.36218 11.2898 6.77013C11.2939 9.1817 9.34172 11.1395 6.92964 11.1437C6.92861 11.1437 6.92809 11.1437 6.92654 11.1437Z" fill="#06070B"/>
</svg>
