<svg width="180" height="180" viewBox="0 0 180 180" fill="none" xmlns="http://www.w3.org/2000/svg">
<path d="M141.888 65.4069C141.888 78.331 131.409 88.8079 118.481 88.8079H33.7831C16.599 88.8079 2.66418 74.8772 2.66418 57.6877C2.66418 40.5022 16.5977 26.5674 33.7831 26.5674C35.3253 26.5674 36.8414 26.6869 38.3259 26.9025C45.3545 12.9457 59.8084 3.36829 76.5063 3.36829C96.7089 3.36829 113.635 17.3951 118.082 36.2409C118.525 38.1209 118.845 40.049 119.03 42.0128V42.017C131.699 42.3081 141.888 52.6669 141.888 65.4069Z" fill="#84ABC1"/>
<path d="M91.353 6.02296C86.7278 4.30634 81.7235 3.36975 76.505 3.36975C59.807 3.36975 45.3586 12.9471 38.3259 26.8984V26.9039C36.8414 26.6883 35.3253 26.5688 33.7831 26.5688C16.5935 26.5688 2.66418 40.5037 2.66418 57.6891C2.66418 74.8787 16.5935 88.8094 33.7831 88.8094H48.8248C33.3354 88.8094 20.7848 76.2547 20.7848 60.7694C20.7848 47.0282 30.6684 35.5928 43.7203 33.1936C45.0125 32.9533 46.3336 32.8036 47.6822 32.7501C48.0599 32.7377 48.443 32.7281 48.8248 32.7281C53.8593 32.7281 58.5862 34.0547 62.6676 36.3838C62.1005 32.4328 58.0163 28.7318 51.9944 25.7504C55.3013 14.5676 66.5541 4.19647 91.353 6.02296Z" fill="#4D87A1"/>
<path d="M92.8362 91.3541C93.0051 91.383 93.1053 91.383 93.1205 91.383H91.8254C92.1633 91.383 92.4997 91.372 92.8362 91.3541Z" fill="#97B0CC"/>
<path d="M177.335 110.524C177.335 120.977 168.862 129.451 158.407 129.451H89.9083C76.0091 129.451 64.7399 118.184 64.7399 104.282C64.7399 90.3832 76.0091 79.1139 89.9083 79.1139C91.1552 79.1139 92.3816 79.21 93.5818 79.3844C99.2659 68.0973 110.955 60.3519 124.459 60.3519C140.799 60.3519 154.488 71.6954 158.083 86.9376C158.441 88.4578 158.701 90.0179 158.85 91.6054V91.6095C169.097 91.8444 177.335 100.221 177.335 110.524Z" fill="#D3DDEA"/>
<path d="M136.467 62.4997C132.726 61.11 128.679 60.3533 124.459 60.3533C110.954 60.3533 99.27 68.0987 93.5818 79.3817V79.3858C92.3802 79.2114 91.1552 79.1152 89.9083 79.1152C76.0064 79.1152 64.7399 90.3845 64.7399 104.284C64.7399 118.186 76.0064 129.452 89.9083 129.452H102.073C89.5457 129.452 79.3957 119.298 79.3957 106.775C79.3957 95.6607 87.3896 86.4129 97.9448 84.4738C98.9885 84.2775 100.058 84.1566 101.149 84.114C101.455 84.1044 101.764 84.0962 102.073 84.0962C106.145 84.0962 109.967 85.1701 113.268 87.0529C112.809 83.8572 109.507 80.8648 104.636 78.4533C107.311 69.4088 116.412 61.0221 136.467 62.4997Z" fill="#97B0CC"/>
<path d="M173.84 95.4273C170.419 91.9336 166.005 89.7418 161.224 89.1211C161.078 88.1831 160.894 87.2493 160.677 86.3251C160.122 83.9767 159.334 81.6723 158.333 79.4764C157.722 78.1375 156.141 77.5469 154.802 78.1581C153.463 78.7692 152.873 80.3498 153.484 81.6888C154.341 83.5675 155.015 85.5395 155.489 87.55C155.821 88.9535 156.057 90.3873 156.193 91.8114C156.295 93.1668 157.41 94.2421 158.789 94.2737C163.051 94.3712 167.044 96.1057 170.032 99.1558C173.023 102.211 174.671 106.249 174.671 110.525C174.671 119.492 167.375 126.786 158.407 126.786H89.9083C77.4992 126.786 67.4055 116.691 67.4055 104.282C67.4055 91.8745 77.4992 81.7794 89.9083 81.7794C90.9823 81.7794 92.0905 81.8605 93.2001 82.0225C94.3345 82.1859 95.4468 81.6064 95.9618 80.5833C101.418 69.748 112.338 63.0175 124.459 63.0175C133.759 63.0175 142.573 67.0646 148.643 74.1247C149.603 75.2398 151.285 75.3661 152.4 74.4076C153.517 73.4476 153.643 71.7654 152.683 70.6502C150.284 67.8583 147.514 65.4715 144.48 63.5338C144.041 57.3183 141.415 51.512 136.99 47.0543C132.766 42.7984 127.303 40.1672 121.413 39.5094C121.222 38.2047 120.976 36.9056 120.674 35.6298C118.367 25.8492 112.755 16.9804 104.87 10.6592C96.8627 4.23762 86.7896 0.702759 76.5063 0.702759C59.8812 0.702759 44.8464 9.5976 36.8263 24.0433C35.7963 23.9499 34.7787 23.9019 33.7831 23.9019C15.1557 23.9019 0 39.0589 0 57.6891C0 65.8149 2.92649 73.6674 8.23978 79.8005C8.76712 80.4075 9.5087 80.7193 10.2544 80.7193C10.8724 80.7193 11.4945 80.505 11.9985 80.0683C13.1109 79.1056 13.2303 77.422 12.2677 76.311C7.79346 71.146 5.32976 64.5322 5.32976 57.6891C5.32976 41.9978 18.0932 29.2316 33.7831 29.2316C35.1289 29.2316 36.5297 29.3346 37.9483 29.5379C39.0813 29.7013 40.1923 29.1218 40.7073 28.0986C47.5614 14.4879 61.2792 6.03115 76.5063 6.03115C85.7129 6.03115 94.3688 9.06888 101.536 14.8161C108.497 20.3972 113.452 28.2236 115.487 36.8548C115.903 38.614 116.201 40.4185 116.373 42.2203C116.475 43.5743 117.59 44.651 118.969 44.6826C128.579 44.9023 136.488 51.5422 138.638 60.4961C134.193 58.6641 129.385 57.6877 124.459 57.6877C110.939 57.6877 98.7002 64.8632 92.0836 76.5376C91.3531 76.4785 90.6252 76.4497 89.9083 76.4497C81.4873 76.4497 73.9328 80.2153 68.8241 86.1438H33.7831C28.4231 86.1438 23.2032 84.6469 18.6851 81.8138C17.4395 81.031 15.7943 81.4073 15.0129 82.6542C14.2301 83.9012 14.6064 85.5464 15.8533 86.3278C21.2202 89.6937 27.4206 91.4735 33.7831 91.4735H65.211C63.2128 95.3105 62.0757 99.6653 62.0757 104.282C62.0757 119.63 74.5604 132.115 89.9083 132.115H158.406C170.313 132.115 179.999 122.43 179.999 110.525C180.001 104.847 177.813 99.484 173.84 95.4273Z" fill="#2D3638"/>
<path d="M38.3451 114.404C37.609 113.129 35.9789 112.692 34.7045 113.429L29.2415 116.583V110.274C29.2415 108.803 28.0481 107.61 26.576 107.61C25.1052 107.61 23.9118 108.803 23.9118 110.274V116.583L18.4474 113.429C17.173 112.692 15.5443 113.129 14.8082 114.404C14.0721 115.678 14.5088 117.308 15.7832 118.044L21.2476 121.199L15.7832 124.353C14.5088 125.089 14.0721 126.718 14.8082 127.992C15.3012 128.848 16.1966 129.326 17.1181 129.326C17.5699 129.326 18.0286 129.21 18.4474 128.967L23.9118 125.813V132.122C23.9118 133.594 25.1052 134.787 26.576 134.787C28.0481 134.787 29.2415 133.594 29.2415 132.122V125.813L34.7045 128.967C35.1247 129.21 35.582 129.326 36.0352 129.326C36.9553 129.326 37.8507 128.847 38.3451 127.992C39.0798 126.718 38.6431 125.089 37.3701 124.353L31.9057 121.199L37.3701 118.044C38.6431 117.308 39.0798 115.679 38.3451 114.404Z" fill="#2D3638"/>
<path d="M38.3451 159.434C37.609 158.159 35.9789 157.723 34.7045 158.459L29.2415 161.613V155.304C29.2415 153.832 28.0481 152.64 26.576 152.64C25.1052 152.64 23.9118 153.832 23.9118 155.304V161.613L18.4474 158.459C17.173 157.723 15.5443 158.159 14.8082 159.434C14.0721 160.708 14.5088 162.338 15.7832 163.073L21.2476 166.229L15.7832 169.383C14.5088 170.118 14.0721 171.748 14.8082 173.023C15.3012 173.877 16.1966 174.355 17.1181 174.355C17.5699 174.355 18.0286 174.241 18.4474 173.998L23.9118 170.843V177.152C23.9118 178.624 25.1052 179.818 26.576 179.818C28.0481 179.818 29.2415 178.624 29.2415 177.152V170.845L34.7045 173.999C35.1247 174.241 35.582 174.356 36.0352 174.356C36.9553 174.356 37.8507 173.878 38.3451 173.024C39.0798 171.75 38.6431 170.119 37.3701 169.383L31.9057 166.229L37.3701 163.074C38.6431 162.338 39.0798 160.708 38.3451 159.434Z" fill="#2D3638"/>
<path d="M80.927 146.999C80.1909 145.724 78.5608 145.288 77.2864 146.024L71.8234 149.178V142.869C71.8234 141.397 70.63 140.204 69.1579 140.204C67.6871 140.204 66.4937 141.397 66.4937 142.869V149.178L61.0293 146.024C59.7549 145.288 58.1262 145.724 57.3901 146.999C56.654 148.273 57.0907 149.902 58.3651 150.638L63.8295 153.792L58.3651 156.947C57.0907 157.683 56.654 159.313 57.3901 160.587C57.8831 161.442 58.7785 161.92 59.7 161.92C60.1518 161.92 60.6105 161.804 61.0293 161.562L66.4937 158.408V164.717C66.4937 166.189 67.6871 167.383 69.1579 167.383C70.63 167.383 71.8234 166.189 71.8234 164.717V158.408L77.2864 161.562C77.7066 161.806 78.1639 161.92 78.6171 161.92C79.5372 161.92 80.4326 161.442 80.927 160.587C81.6617 159.313 81.225 157.683 79.9506 156.948L74.4876 153.794L79.9506 150.638C81.2264 149.903 81.6631 148.273 80.927 146.999Z" fill="#2D3638"/>
<path d="M123.509 159.434C122.773 158.159 121.143 157.723 119.868 158.459L114.405 161.613V155.304C114.405 153.832 113.212 152.64 111.74 152.64C110.269 152.64 109.075 153.832 109.075 155.304V161.613L103.612 158.459C102.337 157.723 100.708 158.159 99.9719 159.434C99.2358 160.708 99.6725 162.338 100.947 163.073L106.411 166.229L100.947 169.383C99.6725 170.118 99.2358 171.748 99.9719 173.023C100.465 173.877 101.362 174.355 102.282 174.355C102.734 174.355 103.192 174.241 103.612 173.998L109.075 170.843V177.152C109.075 178.624 110.269 179.818 111.74 179.818C113.212 179.818 114.405 178.624 114.405 177.152V170.845L119.868 173.999C120.288 174.241 120.747 174.356 121.199 174.356C122.119 174.356 123.016 173.878 123.509 173.024C124.245 171.75 123.808 170.119 122.534 169.383L117.069 166.229L122.534 163.074C123.808 162.338 124.245 160.708 123.509 159.434Z" fill="#2D3638"/>
<path d="M166.091 146.999C165.355 145.724 163.724 145.288 162.45 146.024L156.987 149.178V142.869C156.987 141.397 155.794 140.204 154.321 140.204C152.851 140.204 151.657 141.397 151.657 142.869V149.178L146.194 146.024C144.918 145.288 143.29 145.724 142.554 146.999C141.818 148.273 142.254 149.902 143.529 150.638L148.993 153.792L143.529 156.947C142.254 157.683 141.818 159.313 142.554 160.587C143.047 161.442 143.943 161.92 144.864 161.92C145.315 161.92 145.774 161.804 146.194 161.563L151.657 158.408V164.717C151.657 166.189 152.851 167.381 154.321 167.381C155.794 167.381 156.987 166.189 156.987 164.717V158.408L162.45 161.563C162.87 161.804 163.329 161.92 163.781 161.92C164.701 161.92 165.598 161.442 166.091 160.587C166.827 159.313 166.39 157.683 165.116 156.947L159.651 153.792L165.116 150.638C166.39 149.903 166.827 148.273 166.091 146.999Z" fill="#2D3638"/>
</svg>
