<svg width="180" height="180" viewBox="0 0 180 180" fill="none" xmlns="http://www.w3.org/2000/svg">
<path d="M111.168 95.5055H81.7987L58.3855 138.755L84.9765 138.713L69.0656 177.363L121.615 124.641H91.9721L111.168 95.5055Z" fill="#FFD508"/>
<path d="M91.9721 124.641L111.168 95.5055H101.364L85.7978 119.133C84.2405 121.496 85.9365 124.641 88.7655 124.641H91.9721Z" fill="#EEC707"/>
<path d="M111.811 124.641L75.9636 160.606L69.0656 177.363L121.615 124.641H111.811Z" fill="#EEC707"/>
<path d="M156.833 60.1625C156.079 60.1625 155.336 60.2065 154.602 60.2847C154.729 59.2259 154.795 58.1479 154.795 57.0547C154.795 42.1545 142.717 30.0764 127.816 30.0764C125.95 30.0764 124.128 30.266 122.367 30.6258C120.081 14.7986 106.462 2.63672 90 2.63672C73.5384 2.63672 59.9194 14.7986 57.6329 30.6258C55.8723 30.266 54.05 30.0764 52.1837 30.0764C37.2835 30.0764 25.2054 42.1545 25.2054 57.0547C25.2054 58.1479 25.2713 59.2259 25.3976 60.2847C24.6643 60.2065 23.9214 60.1625 23.1674 60.1625C11.8282 60.1625 2.63672 69.3539 2.63672 80.6932C2.63672 92.0311 11.8282 101.224 23.1674 101.224C28.1387 101.224 32.6981 99.4551 36.2508 96.5149C40.7826 102.909 48.2355 107.088 56.6702 107.088C63.3266 107.088 69.3718 104.483 73.8528 100.242C76.8576 107.037 83.6526 111.78 91.5587 111.78C98.7273 111.78 104.981 107.88 108.325 102.089C112.505 105.227 117.701 107.088 123.33 107.088C131.765 107.088 139.217 102.909 143.749 96.5149C147.302 99.4551 151.861 101.224 156.833 101.224C168.172 101.224 177.363 92.0311 177.363 80.6932C177.363 69.3539 168.172 60.1625 156.833 60.1625Z" fill="#5A5A5A"/>
<path d="M156.833 60.1625C156.079 60.1625 155.336 60.2065 154.602 60.2847C154.729 59.2259 154.795 58.1479 154.795 57.0547C154.795 42.1545 142.717 30.0764 127.816 30.0764C125.95 30.0764 124.128 30.266 122.367 30.6258C120.081 14.7986 106.462 2.63672 90 2.63672C78.0386 2.63672 67.5838 9.06097 61.8805 18.6424C67.2885 14.6887 73.9545 12.3541 81.167 12.3541C94.801 12.3541 106.486 20.6969 111.397 32.5566C113.096 36.6614 116.919 39.4972 121.345 39.8804C133.211 40.9103 143.133 49.7859 145.453 61.4671C146.321 65.8424 149.523 69.4501 153.8 70.7094C162.269 73.2019 168.53 81.0352 168.53 90.4092C168.53 93.3357 167.914 96.1166 166.811 98.6353C173.105 95.1279 177.365 88.4097 177.365 80.6932C177.363 69.3539 168.172 60.1625 156.833 60.1625Z" fill="#464646"/>
<path d="M21.9658 115.387C20.5088 115.387 19.3291 116.566 19.3291 118.023V127.391C19.3291 128.848 20.5088 130.027 21.9658 130.027C23.4215 130.027 24.6025 128.848 24.6025 127.391V118.023C24.6025 116.566 23.4215 115.387 21.9658 115.387Z" fill="#2D3638"/>
<path d="M21.9658 142.343C20.5088 142.343 19.3291 143.523 19.3291 144.98V168.066C19.3291 169.523 20.5088 170.703 21.9658 170.703C23.4215 170.703 24.6025 169.523 24.6025 168.066V144.98C24.6025 143.523 23.4215 142.343 21.9658 142.343Z" fill="#2D3638"/>
<path d="M48.5802 154.48C47.1245 154.48 45.9435 155.661 45.9435 157.117V177.363C45.9435 178.82 47.1245 180 48.5802 180C50.0373 180 51.2169 178.82 51.2169 177.363V157.117C51.2169 155.661 50.0373 154.48 48.5802 154.48Z" fill="#2D3638"/>
<path d="M48.5802 131.614C47.1245 131.614 45.9435 132.795 45.9435 134.25V140.777C45.9435 142.233 47.1245 143.414 48.5802 143.414C50.0373 143.414 51.2169 142.233 51.2169 140.777V134.25C51.2169 132.795 50.0373 131.614 48.5802 131.614Z" fill="#2D3638"/>
<path d="M138.433 154.48C136.976 154.48 135.797 155.661 135.797 157.117V177.363C135.797 178.82 136.976 180 138.433 180C139.889 180 141.07 178.82 141.07 177.363V157.117C141.07 155.661 139.889 154.48 138.433 154.48Z" fill="#2D3638"/>
<path d="M138.433 131.614C136.976 131.614 135.797 132.795 135.797 134.25V140.777C135.797 142.233 136.976 143.414 138.433 143.414C139.889 143.414 141.07 142.233 141.07 140.777V134.25C141.07 132.795 139.889 131.614 138.433 131.614Z" fill="#2D3638"/>
<path d="M158.034 110.223C156.578 110.223 155.397 111.403 155.397 112.86V124.523C155.397 125.98 156.578 127.16 158.034 127.16C159.491 127.16 160.671 125.98 160.671 124.523V112.86C160.671 111.404 159.491 110.223 158.034 110.223Z" fill="#2D3638"/>
<path d="M158.034 139.855C156.578 139.855 155.397 141.036 155.397 142.491V164.445C155.397 165.902 156.578 167.081 158.034 167.081C159.491 167.081 160.671 165.902 160.671 164.445V142.491C160.671 141.036 159.491 139.855 158.034 139.855Z" fill="#2D3638"/>
<path d="M157.429 57.5327C157.714 39.8172 142.355 25.6284 124.494 27.6237C120.932 11.6702 106.721 0 90 0C73.261 0 59.0639 11.6881 55.5057 27.6237C48.3495 26.8245 40.9557 28.5851 34.7305 33.1334C33.555 33.9917 33.2982 35.6424 34.1579 36.8179C35.0162 37.9935 36.6655 38.2489 37.8424 37.3906C43.5718 33.2034 50.5769 31.8713 57.1028 33.2089C58.5928 33.5138 60.0252 32.5003 60.2422 31.0034C62.3735 16.2502 75.0778 5.27344 90 5.27344C104.911 5.27344 117.624 16.2364 119.758 31.0034C119.862 31.7216 120.258 32.3657 120.852 32.7832C122.429 33.8914 123.077 32.7132 127.816 32.7132C141.239 32.7132 152.159 43.6322 152.159 57.0547C152.159 58.0202 152.1 59.0021 151.983 59.973C151.783 61.6566 153.204 63.0904 154.885 62.9063C165.552 61.7542 174.727 70.1312 174.727 80.6932C174.727 90.5603 166.7 98.5872 156.833 98.5872C152.677 98.5872 148.627 97.1301 145.432 94.4838C144.256 93.5115 142.49 93.7326 141.599 94.9905C137.401 100.915 130.571 104.451 123.331 104.451C118.446 104.451 113.805 102.905 109.91 99.9797C108.645 99.0308 106.834 99.4002 106.043 100.769C99.223 112.58 81.8207 111.741 76.2657 99.1763C75.5324 97.516 73.3681 97.0711 72.0415 98.3263C62.0879 107.743 46.2291 106.035 38.4027 94.9905C37.5101 93.7312 35.7426 93.5129 34.5699 94.4838C31.3728 97.1301 27.3244 98.5872 23.1674 98.5872C13.3003 98.5872 5.27344 90.5603 5.27344 80.6932C5.27344 70.134 14.4443 61.7542 25.1147 62.9063C26.7943 63.089 28.217 61.658 28.0165 59.973C27.3244 54.1763 28.6798 48.1902 32.2353 43.1145C33.0702 41.9211 32.7805 40.2773 31.5871 39.4423C30.3951 38.6073 28.7498 38.8971 27.9149 40.0905C24.3237 45.217 22.4712 51.2663 22.5728 57.5327C10.0717 57.8499 0 68.118 0 80.6932C0 93.4676 10.3931 103.861 23.1674 103.861C27.6416 103.861 32.021 102.556 35.7509 100.145C38.5565 103.387 42.057 105.908 45.9435 107.548V119.553C45.9435 121.009 47.1245 122.19 48.5802 122.19C50.0372 122.19 51.2169 121.009 51.2169 119.553V109.175C52.9967 109.535 54.8218 109.725 56.6702 109.725C62.6262 109.725 68.3391 107.828 73.0701 104.33C73.2404 104.595 73.4189 104.855 73.6002 105.11L56.066 137.499C55.6238 138.316 55.6444 139.307 56.1209 140.106C56.9284 141.457 58.3539 141.382 58.3896 141.391L81.0379 141.356L66.628 176.359C65.9097 178.102 67.2034 179.999 69.0642 179.999C71.1502 179.999 70.0241 179.724 99.613 150.45C100.64 149.418 100.639 147.75 99.6062 146.721C98.5748 145.692 96.9063 145.697 95.8777 146.728L76.5431 166.126L87.4141 139.717C87.7492 138.903 87.6572 137.976 87.1655 137.244C86.3237 135.989 85.0081 136.086 84.9724 136.077L62.8143 136.111L77.3698 109.223C82.5348 113.595 89.3614 115.273 95.8228 114.005L89.7707 123.191C88.6198 124.938 89.8695 127.278 91.972 127.278H115.263L103.011 139.572C101.983 140.603 101.985 142.273 103.017 143.3C104.049 144.327 105.717 144.325 106.746 143.295L123.482 126.503C125.133 124.846 123.96 122.005 121.615 122.005H96.8665L104.805 109.954C106.389 108.759 107.821 107.353 109.043 105.753C113.342 108.36 118.228 109.725 123.33 109.725C127.715 109.725 131.977 108.673 135.795 106.74V119.553C135.795 121.009 136.976 122.19 138.432 122.19C139.888 122.19 141.069 121.009 141.069 119.553V103.27C142.204 102.321 143.269 101.277 144.249 100.145C147.978 102.556 152.357 103.861 156.831 103.861C169.606 103.861 179.999 93.4676 179.999 80.6932C180 68.118 169.928 57.8499 157.429 57.5327Z" fill="#2D3638"/>
</svg>
