<svg width="24" height="24" viewBox="0 0 24 24" fill="none" xmlns="http://www.w3.org/2000/svg">
<g clip-path="url(#clip0)">
<path d="M20.5715 6C18.6806 6 17.1429 7.53809 17.1429 9.42857C17.1429 9.90193 17.5263 10.2857 18.0001 10.2857C18.4738 10.2857 18.8572 9.90193 18.8572 9.42857C18.8572 8.48309 19.6264 7.71429 20.5715 7.71429C21.5165 7.71429 22.2858 8.48309 22.2858 9.42857C22.2858 10.3741 21.5165 11.1429 20.5715 11.1429H0.925014C0.451228 11.1429 0.0678711 11.5266 0.0678711 12C0.0678711 12.4734 0.451228 12.8571 0.925014 12.8571H20.5715C22.4624 12.8571 24.0001 11.3191 24.0001 9.42857C24.0001 7.53809 22.4624 6 20.5715 6Z" fill="#2D3638"/>
<path d="M12 2.57141C10.1091 2.57141 8.57143 4.1095 8.57143 5.99998C8.57143 6.47334 8.95479 6.85713 9.42857 6.85713C9.90236 6.85713 10.2857 6.47334 10.2857 5.99998C10.2857 5.0545 11.0549 4.2857 12 4.2857C12.9451 4.2857 13.7143 5.0545 13.7143 5.99998C13.7143 6.94546 12.9451 7.71427 12 7.71427H0.857143C0.383357 7.71427 0 8.09805 0 8.57141C0 9.04477 0.383357 9.42855 0.857143 9.42855H12C13.8909 9.42855 15.4286 7.89046 15.4286 5.99998C15.4286 4.1095 13.8909 2.57141 12 2.57141Z" fill="#2D3638"/>
<path d="M12 14.5714H0.857143C0.383357 14.5714 0 14.9552 0 15.4286C0 15.9019 0.383357 16.2857 0.857143 16.2857H12C12.9451 16.2857 13.7143 17.0545 13.7143 18C13.7143 18.9455 12.9451 19.7143 12 19.7143C11.0549 19.7143 10.2857 18.9455 10.2857 18C10.2857 17.5266 9.90236 17.1428 9.42857 17.1428C8.95479 17.1428 8.57143 17.5266 8.57143 18C8.57143 19.8905 10.1091 21.4286 12 21.4286C13.8909 21.4286 15.4286 19.8905 15.4286 18C15.4286 16.1095 13.8909 14.5714 12 14.5714Z" fill="#2D3638"/>
</g>
<defs>
<clipPath id="clip0">
<rect width="24" height="24" fill="white"/>
</clipPath>
</defs>
</svg>
