<?xml version="1.0" standalone="no"?>
<!DOCTYPE svg PUBLIC "-//W3C//DTD SVG 20010904//EN"
 "http://www.w3.org/TR/2001/REC-SVG-20010904/DTD/svg10.dtd">
<svg version="1.0" xmlns="http://www.w3.org/2000/svg"
 width="500.000000pt" height="500.000000pt" viewBox="0 0 500.000000 500.000000"
 preserveAspectRatio="xMidYMid meet">
<metadata>
Created by potrace 1.11, written by Peter Selinger 2001-2013
</metadata>
<g transform="translate(0.000000,500.000000) scale(0.100000,-0.100000)"
fill="#000000" stroke="none">
<path d="M2965 4635 c-24 -23 -25 -29 -25 -168 0 -131 2 -147 21 -171 25 -31
66 -34 100 -7 23 18 24 27 28 147 4 148 -7 200 -45 214 -38 15 -53 12 -79 -15z"/>
<path d="M2082 4397 c-12 -13 -22 -33 -22 -45 0 -24 109 -221 143 -259 29 -33
79 -31 106 3 12 15 21 34 21 42 0 18 -100 200 -137 250 -30 40 -78 44 -111 9z"/>
<path d="M3848 4408 c-28 -22 -148 -242 -148 -271 0 -37 32 -67 73 -67 41 0
47 7 125 142 69 120 79 165 40 192 -27 19 -68 21 -90 4z"/>
<path d="M1375 4210 c-118 -18 -281 -77 -319 -115 -26 -26 -20 -80 10 -104 15
-12 32 -21 37 -21 6 0 47 15 92 34 235 101 495 84 712 -45 71 -43 179 -148
228 -221 l37 -57 -58 -65 c-71 -77 -153 -207 -199 -311 -18 -42 -35 -78 -38
-81 -3 -3 -38 1 -78 10 -275 55 -540 6 -767 -144 -149 -98 -259 -219 -344
-375 -30 -57 -45 -75 -61 -76 -12 0 -52 -8 -90 -18 l-67 -17 -47 45 c-26 26
-60 75 -77 111 -28 58 -31 75 -31 155 0 76 5 99 27 147 55 117 165 199 293
217 38 6 75 16 82 24 8 8 23 61 33 118 25 145 65 240 147 348 42 56 44 101 7
130 -39 30 -62 26 -105 -19 -79 -83 -161 -256 -189 -397 -12 -60 -13 -61 -49
-67 -55 -8 -171 -69 -226 -118 -205 -180 -226 -526 -44 -723 l39 -42 -41 -29
c-110 -76 -214 -224 -258 -369 -82 -265 13 -572 230 -751 116 -95 257 -150
415 -161 95 -7 110 -22 42 -43 -168 -50 -283 -182 -310 -354 -35 -229 129
-451 362 -487 42 -6 653 -9 1710 -7 1574 3 1647 4 1700 22 214 72 362 232 404
438 9 42 16 96 16 120 0 67 -27 175 -60 246 -17 36 -29 66 -28 67 2 1 33 10
70 19 136 36 281 151 346 273 122 231 84 501 -98 684 -72 73 -196 143 -274
154 l-44 7 -15 76 c-36 178 -120 347 -235 472 -56 62 -60 69 -76 150 -36 179
-103 330 -210 475 -228 309 -577 485 -961 485 -249 0 -473 -66 -669 -198 l-58
-40 -59 78 c-128 169 -306 284 -521 335 -80 19 -255 27 -333 15z m1740 -340
c134 -14 237 -44 360 -105 185 -91 318 -212 429 -390 237 -376 200 -886 -89
-1222 l-36 -42 -56 45 c-46 38 -61 45 -91 42 -24 -2 -41 -11 -55 -29 -28 -39
-16 -79 36 -117 62 -44 162 -148 203 -209 77 -116 134 -272 149 -405 9 -80 26
-97 105 -108 116 -15 199 -57 273 -139 118 -131 140 -344 52 -496 -33 -55
-119 -136 -176 -165 -97 -50 -92 -50 -937 -50 l-794 0 39 44 c75 85 123 217
123 336 -1 245 -165 456 -402 515 -65 17 -69 20 -98 69 -17 28 -44 70 -62 93
-17 24 -29 45 -26 48 2 3 45 11 95 18 49 8 94 17 100 20 5 4 33 53 61 109 90
179 230 319 406 402 152 73 349 103 506 76 104 -18 130 -17 152 10 25 31 23
72 -6 99 -58 54 -345 66 -526 21 l-85 -21 -70 22 c-38 12 -75 23 -82 25 -7 2
-15 20 -18 41 -13 76 -44 180 -75 248 -80 178 -246 363 -413 460 -99 57 -97
45 -34 174 167 344 523 571 927 589 14 1 66 -3 115 -8z m-1311 -790 c341 -88
601 -382 646 -730 9 -70 15 -89 36 -107 14 -13 36 -23 50 -23 21 0 11 -11 -55
-60 -124 -94 -222 -212 -294 -356 -25 -49 -28 -51 -75 -57 -28 -3 -81 -16
-119 -29 l-68 -23 -55 33 c-123 73 -258 106 -405 99 -179 -9 -245 -36 -245
-102 0 -64 44 -84 135 -60 69 18 191 20 267 4 83 -17 206 -81 275 -143 59 -54
125 -147 152 -213 20 -49 44 -64 115 -73 131 -16 243 -96 302 -215 26 -55 29
-69 29 -165 0 -96 -2 -110 -29 -163 -37 -72 -118 -150 -193 -185 l-58 -27
-730 0 -730 0 -42 23 c-69 36 -108 77 -138 143 -77 173 34 371 223 396 83 10
83 10 111 163 16 84 60 175 121 252 37 44 50 70 50 93 0 68 -76 91 -131 39
-38 -36 -116 -152 -131 -195 l-11 -32 -111 6 c-136 6 -219 34 -319 107 -136
101 -216 250 -224 420 -8 163 37 293 142 408 93 103 213 164 359 184 45 6 87
16 94 21 7 6 28 44 47 84 176 382 607 588 1009 483z m2471 -450 c45 -90 72
-176 86 -277 16 -111 27 -124 114 -134 142 -18 268 -106 331 -233 91 -185 37
-410 -127 -531 -114 -84 -270 -110 -350 -59 -48 30 -160 74 -189 74 -25 0 -27
5 -44 87 -24 110 -73 234 -129 323 -29 45 -58 92 -66 104 -13 21 -10 27 45 93
137 163 216 352 259 618 6 38 8 39 22 20 8 -11 30 -49 48 -85z"/>
<path d="M3018 2080 c-21 -16 -28 -30 -28 -56 0 -50 29 -74 88 -74 127 -1 283
-60 387 -149 33 -28 70 -56 83 -63 51 -26 116 34 96 91 -14 40 -141 139 -239
186 -103 50 -178 71 -285 81 -68 5 -78 4 -102 -16z"/>
<path d="M3666 1647 c-32 -32 -32 -53 2 -146 23 -63 32 -77 58 -87 38 -16 73
-1 92 38 10 23 9 37 -13 106 -27 87 -37 99 -83 108 -25 5 -36 1 -56 -19z"/>
<path d="M4392 3709 c-128 -74 -148 -95 -136 -145 7 -28 40 -54 68 -54 26 0
264 138 276 160 6 10 10 28 10 40 0 28 -43 70 -72 70 -13 0 -78 -32 -146 -71z"/>
<path d="M4480 2880 c-30 -30 -27 -83 6 -109 24 -19 40 -21 164 -21 124 0 140
2 164 21 33 26 36 79 6 109 -18 18 -33 20 -170 20 -137 0 -152 -2 -170 -20z"/>
</g>
</svg>
